<svg width="12" height="12" viewBox="0 0 12 12" fill="none" xmlns="http://www.w3.org/2000/svg">
<path d="M11.8206 0.0821152C11.891 0.129023 11.9418 0.189611 11.9731 0.263882C12.0044 0.338151 12.0122 0.418284 11.9965 0.504281L10.2844 10.8004C10.2766 10.863 10.2532 10.9197 10.2141 10.9705C10.175 11.0213 10.1281 11.0662 10.0733 11.1053C10.0421 11.121 10.0088 11.1327 9.97367 11.1405C9.93849 11.1483 9.90135 11.1522 9.86226 11.1522C9.83881 11.1522 9.8134 11.1503 9.78604 11.1464C9.75868 11.1425 9.72936 11.1327 9.69809 11.1171L6.67257 9.88574L5.04254 11.8559C5.00345 11.9106 4.95459 11.9497 4.89595 11.9731C4.83732 11.9966 4.77673 12.0083 4.71419 12.0083C4.69073 12.0083 4.66728 12.0063 4.64382 12.0024C4.62037 11.9985 4.59692 11.9927 4.57346 11.9848C4.48747 11.9536 4.41906 11.9008 4.36824 11.8265C4.31743 11.7523 4.29202 11.6721 4.29202 11.5861V9.24077L10.0733 2.14604L2.91998 8.34953L0.269717 7.25893C0.191538 7.22766 0.128995 7.1788 0.0820878 7.11235C0.0351805 7.0459 0.00781789 6.97358 0 6.8954C0 6.80941 0.0175902 6.73123 0.0527707 6.66087C0.0879512 6.59051 0.140722 6.53578 0.211083 6.49669L11.3633 0.0586615C11.3946 0.043026 11.4297 0.0293446 11.4688 0.0176182C11.5079 0.00589085 11.5431 2.76566e-05 11.5744 2.76566e-05C11.6213 2.76566e-05 11.6662 0.00784588 11.7092 0.0234814C11.7522 0.0391169 11.7894 0.0586615 11.8206 0.0821152Z" fill="white"/>
</svg>
