<?xml version="1.0" encoding="UTF-8" standalone="no"?>
<!-- Created with Inkscape (http://www.inkscape.org/) -->

<svg
   width="210mm"
   height="210mm"
   viewBox="0 0 210 210"
   version="1.1"
   id="svg1"
   xml:space="preserve"
   xmlns:inkscape="http://www.inkscape.org/namespaces/inkscape"
   xmlns:sodipodi="http://sodipodi.sourceforge.net/DTD/sodipodi-0.dtd"
   xmlns="http://www.w3.org/2000/svg"
   xmlns:svg="http://www.w3.org/2000/svg"><sodipodi:namedview
     id="namedview1"
     pagecolor="#ffffff"
     bordercolor="#000000"
     borderopacity="0.25"
     inkscape:showpageshadow="2"
     inkscape:pageopacity="0.0"
     inkscape:pagecheckerboard="0"
     inkscape:deskcolor="#d1d1d1"
     inkscape:document-units="mm"><inkscape:page
       x="0"
       y="0"
       width="210"
       height="210"
       id="page2"
       margin="0"
       bleed="0" /></sodipodi:namedview><defs
     id="defs1" /><g
     inkscape:label="Шар 1"
     inkscape:groupmode="layer"
     id="layer1"
     transform="translate(0,-1.1546516)"><rect
       style="fill:#000000;fill-opacity:0;stroke-width:0.3877"
       id="rect1"
       width="210"
       height="210"
       x="0"
       y="1.1546514" /><g
       style="fill:none"
       id="g1"
       transform="matrix(5.1449985,0,0,110.58383,39.514973,50.862736)"><path
         d="m 23.0694,0.0625 c 0.6629,0 1.2263,0.0091146 1.6904,0.0273438 0.464,0.0182292 0.696,0.0403642 0.696,0.0664062 V 0.625 c 0,0.042969 -0.2071,0.083659 -0.6214,0.12207 C 24.42,0.784831 23.8524,0.817871 23.1315,0.846191 22.4106,0.874512 21.5695,0.89681 20.6083,0.913086 19.6305,0.929362 18.5947,0.9375 17.5009,0.9375 h -0.3978 c -0.3314,0 -0.6131,-0.004557 -0.8452,-0.013672 -0.232,-0.009114 -0.348,-0.020182 -0.348,-0.033203 v -0.09375 c 0,-0.013021 0.116,-0.024089 0.348,-0.033203 C 16.49,0.754557 16.7717,0.75 17.1031,0.75 h 0.3978 c 0.8784,0 1.6283,-0.012207 2.2498,-0.036621 C 20.3721,0.688965 20.6829,0.659505 20.6829,0.625 V 0.5 H 16.7054 C 16.0425,0.5 15.479,0.490885 15.015,0.472656 14.5509,0.454427 14.3189,0.432292 14.3189,0.40625 v -0.25 c 0,-0.026042 0.232,-0.048177 0.6961,-0.0664062 C 15.479,0.0716146 16.0425,0.0625 16.7054,0.0625 Z m -14.31895,0 c 0.66291,0 1.22639,0.0091146 1.69045,0.0273438 0.464,0.0182292 0.696,0.0403642 0.696,0.0664062 V 0.625 c 0,0.042969 -0.2071,0.083659 -0.6214,0.12207 C 10.1011,0.784831 9.53351,0.817871 8.81259,0.846191 8.09168,0.874512 7.25061,0.89681 6.28938,0.913086 5.31159,0.929362 4.27579,0.9375 3.18198,0.9375 H 2.78423 C 2.45278,0.9375 2.17104,0.932943 1.93902,0.923828 1.707,0.914714 1.59099,0.903646 1.59099,0.890625 V 0.796875 C 1.59099,0.783854 1.707,0.772786 1.93902,0.763672 2.17104,0.754557 2.45278,0.75 2.78423,0.75 H 3.18198 C 4.06034,0.75 4.81026,0.737793 5.43174,0.713379 6.05322,0.688965 6.36396,0.659505 6.36396,0.625 V 0.5 H 2.38649 C 1.72357,0.5 1.1601,0.490885 0.696058,0.472656 0.232019,0.454427 0,0.432292 0,0.40625 v -0.25 C 0,0.130208 0.232019,0.108073 0.696058,0.0898438 1.1601,0.0716146 1.72357,0.0625 2.38649,0.0625 Z"
         fill="#ffffff"
         id="path1" /></g></g></svg>
