<?xml version="1.0" encoding="UTF-8" standalone="no"?>
<!-- Created with Inkscape (http://www.inkscape.org/) -->

<svg
   width="210mm"
   height="81.454079mm"
   viewBox="0 0 210 81.454079"
   version="1.1"
   id="svg1"
   xml:space="preserve"
   xmlns:inkscape="http://www.inkscape.org/namespaces/inkscape"
   xmlns:sodipodi="http://sodipodi.sourceforge.net/DTD/sodipodi-0.dtd"
   xmlns="http://www.w3.org/2000/svg"
   xmlns:svg="http://www.w3.org/2000/svg"><sodipodi:namedview
     id="namedview1"
     pagecolor="#ffffff"
     bordercolor="#000000"
     borderopacity="0.25"
     inkscape:showpageshadow="2"
     inkscape:pageopacity="0.0"
     inkscape:pagecheckerboard="0"
     inkscape:deskcolor="#d1d1d1"
     inkscape:document-units="mm"><inkscape:page
       x="0"
       y="0"
       width="210"
       height="81.454079"
       id="page2"
       margin="0"
       bleed="0" /></sodipodi:namedview><defs
     id="defs1" /><g
     inkscape:label="Шар 1"
     inkscape:groupmode="layer"
     id="layer1"><g
       style="fill:none"
       id="g8"
       transform="matrix(0.26458333,0,0,0.26458333,93.8875,53.454944)"><path
         d="m 14.9297,48.7266 c -1.8594,0 -3.459,0.6699 -4.7988,2.0097 -1.33988,1.3399 -2.00981,2.9395 -2.00981,4.7989 0,1.8593 0.66993,3.4453 2.00981,4.7578 1.3398,1.3125 2.9394,1.9687 4.7988,1.9687 1.8594,0 3.4453,-0.6562 4.7578,-1.9687 1.3125,-1.3125 1.9687,-2.8985 1.9687,-4.7578 0,-1.8594 -0.6562,-3.459 -1.9687,-4.7989 -1.3125,-1.3398 -2.8984,-2.0097 -4.7578,-2.0097 z m 0,10.8281 c -1.1485,0 -2.1192,-0.3965 -2.9121,-1.1895 -0.793,-0.7929 -1.1895,-1.7363 -1.1895,-2.83 0,-1.1485 0.3965,-2.1192 1.1895,-2.9122 0.7929,-0.7929 1.7636,-1.1894 2.9121,-1.1894 1.0937,0 2.0371,0.3965 2.8301,1.1894 0.7929,0.793 1.1894,1.7637 1.1894,2.9122 0,1.0937 -0.3965,2.0371 -1.1894,2.83 -0.793,0.793 -1.7364,1.1895 -2.8301,1.1895 z m 57.832,-27.0703 3.6914,2.4609 c 0.1094,0.1094 0.2324,0.1777 0.3692,0.2051 0.1367,0.0273 0.2597,0.041 0.3691,0.041 h 5.4141 c 0.3828,0 0.7109,-0.1367 0.9843,-0.4102 C 83.8633,34.5078 84,34.1797 84,33.7969 V 28.3828 C 84,28.0547 83.8633,27.7539 83.5898,27.4805 83.3164,27.207 82.9883,27.0703 82.6055,27.0703 H 80.3086 L 76.6172,24.6094 C 76.5078,24.5 76.3848,24.4316 76.248,24.4043 76.1113,24.377 75.9883,24.3633 75.8789,24.3633 H 70.4648 V 8.12109 h 1.3125 c 0.3829,0 0.711,-0.13671 0.9844,-0.41015 0.2735,-0.27344 0.4102,-0.60156 0.4102,-0.98438 V 1.3125 c 0,-0.382812 -0.1367,-0.697266 -0.4102,-0.943359 C 72.4883,0.123047 72.1602,0 71.7773,0 H 42 C 41.8359,0 41.6719,0.0273438 41.5078,0.0820312 41.3438,0.136719 41.1797,0.21875 41.0156,0.328125 L 35.6016,5.74219 C 35.4375,5.96094 35.3281,6.20703 35.2734,6.48047 35.2188,6.75391 35.2461,7 35.3555,7.21875 c 0.1093,0.27344 0.2734,0.49219 0.4922,0.65625 0.2187,0.16406 0.4648,0.24609 0.7382,0.24609 h 31.1719 v 6.72661 h -4.1016 c -0.3828,0 -0.6972,0.1367 -0.9433,0.4101 -0.2461,0.2734 -0.3691,0.6016 -0.3691,0.9844 v 6.7266 c 0,0.3828 -0.1368,0.7109 -0.4102,0.9843 -0.2734,0.2735 -0.6016,0.4102 -0.9844,0.4102 h -8.1211 c -0.3828,0 -0.6972,0.1367 -0.9433,0.4101 -0.2461,0.2735 -0.3692,0.5743 -0.3692,0.9024 v 5.414 c 0,0.3829 0.1231,0.711 0.3692,0.9844 0.2461,0.2735 0.5605,0.4102 0.9433,0.4102 h 2.625 l -11.5664,8.3672 c -0.164,0.164 -0.2871,0.3418 -0.3691,0.5332 -0.0821,0.1914 -0.1231,0.3964 -0.1231,0.6152 v 4.0195 h -8.2031 v -2.707 h 1.3945 c 0.3829,0 0.6973,-0.1367 0.9434,-0.4102 C 37.7754,42.6289 37.8984,42.3281 37.8984,42 V 37.8984 H 42 c 0.1641,0 0.3281,-0.0273 0.4922,-0.082 0.164,-0.0547 0.3281,-0.1641 0.4922,-0.3281 l 2.707,-2.7071 -1.9687,-1.8867 -2.2969,2.2969 h -3.5274 v -3.5273 l 12.2227,-12.1407 1.7227,1.7227 1.9687,-1.8867 -5.4141,-5.4141 -1.9687,1.8867 1.8047,1.7227 -10.336,10.3359 v -2.2148 c 0,-0.3281 -0.123,-0.6289 -0.3691,-0.9024 C 37.2832,24.5 36.9688,24.3633 36.5859,24.3633 h -4.1015 v -1.3945 c 0,-0.3282 -0.1231,-0.629 -0.3692,-0.9024 -0.2461,-0.2734 -0.5605,-0.4102 -0.9433,-0.4102 h -1.3946 v -6.8085 c 0,-1.0938 -0.3964,-2.0372 -1.1894,-2.8301 -0.793,-0.793 -1.7363,-1.1895 -2.8301,-1.1895 h -4.1016 v 2.7071 h 4.1016 c 0.3828,0 0.6973,0.123 0.9434,0.3691 0.2461,0.2461 0.3691,0.5605 0.3691,0.9434 v 6.8085 h -1.3125 c -0.3828,0 -0.7109,0.1368 -0.9844,0.4102 -0.2734,0.2734 -0.4101,0.5742 -0.4101,0.9024 v 4.1015 h -9.4336 c -1.1485,0 -2.1192,0.3965 -2.9121,1.1895 -0.793,0.7929 -1.1895,1.7363 -1.1895,2.83 V 42.5742 C 10.5,42.6836 10.1582,42.8066 9.80273,42.9434 9.44727,43.0801 9.10547,43.2305 8.77734,43.3945 L 7.71094,42.3281 C 7.4375,42.1094 7.12305,42 6.76758,42 6.41211,42 6.09766,42.1094 5.82422,42.3281 l -4.10156,4.1016 c -0.21875,0.2734 -0.32813,0.5879 -0.32813,0.9433 0,0.3555 0.10938,0.67 0.32813,0.9434 l 1.0664,1.0664 C 2.625,49.7109 2.48828,50.0527 2.37891,50.4082 2.26953,50.7637 2.13281,51.1055 1.96875,51.4336 H 1.39453 c -0.38281,0 -0.710936,0.1367 -0.984374,0.4102 C 0.136719,52.1172 0,52.4453 0,52.8281 v 5.4141 c 0,0.3828 0.136719,0.6973 0.410156,0.9433 0.273438,0.2461 0.601564,0.3692 0.984374,0.3692 h 0.57422 c 0.10937,0.3828 0.23242,0.7383 0.36914,1.0664 0.13672,0.3281 0.31445,0.6562 0.5332,0.9844 l -1.14843,1.0664 c -0.21875,0.2734 -0.32813,0.6015 -0.32813,0.9843 0,0.3829 0.10938,0.711 0.32813,0.9844 l 4.10156,4.0196 c 0.27344,0.2734 0.58789,0.4101 0.94336,0.4101 0.35547,0 0.66992,-0.1367 0.94336,-0.4101 l 1.0664,-1.0664 c 0.32813,0.164 0.66993,0.3144 1.02539,0.4511 0.35547,0.1367 0.69727,0.2598 1.02537,0.3692 v 0.6562 c 0,0.3828 0.1367,0.6973 0.4102,0.9434 0.2734,0.2461 0.6015,0.3691 0.9844,0.3691 h 5.414 c 0.3828,0 0.6973,-0.123 0.9434,-0.3691 0.2461,-0.2461 0.3691,-0.5606 0.3691,-0.9434 v -0.6562 c 0.3828,-0.1094 0.7383,-0.2325 1.0664,-0.3692 0.3282,-0.1367 0.6563,-0.2871 0.9844,-0.4511 l 1.0664,1.0664 c 0.2734,0.2734 0.6016,0.4101 0.9844,0.4101 0.3828,0 0.6836,-0.1367 0.9023,-0.4101 l 4.1016,-4.0196 c 0.2734,-0.2734 0.4101,-0.6015 0.4101,-0.9844 0,-0.3828 -0.1367,-0.7109 -0.4101,-0.9843 l -1.0664,-1.0664 c 0.164,-0.3282 0.3144,-0.6563 0.4512,-0.9844 0.1367,-0.3281 0.2597,-0.6836 0.3691,-1.0664 h 0.6562 c 0.3829,0 0.6973,-0.1231 0.9434,-0.3692 0.2461,-0.246 0.3691,-0.5605 0.3691,-0.9433 v -1.3945 h 2.7071 v 1.3945 c 0,0.3828 0.1367,0.6973 0.4101,0.9433 0.2735,0.2461 0.6016,0.3692 0.9844,0.3692 H 44.707 c 0.3828,0 0.711,-0.1231 0.9844,-0.3692 0.2734,-0.246 0.4102,-0.5605 0.4102,-0.9433 v -1.3945 h 4.5937 c 0.1641,0.7109 0.3828,1.4082 0.6563,2.0918 0.2734,0.6835 0.6015,1.3261 0.9843,1.9277 l -0.4921,0.4922 c -0.1094,0.1094 -0.1915,0.2461 -0.2461,0.4101 -0.0547,0.1641 -0.0821,0.3282 -0.0821,0.4922 0,0.2188 0.0274,0.4102 0.0821,0.5742 0.0546,0.1641 0.1367,0.3008 0.2461,0.4102 l 4.1015,4.1016 c 0.2735,0.2187 0.6016,0.3281 0.9844,0.3281 0.3828,0 0.6836,-0.1094 0.9023,-0.3281 l 0.4922,-0.4922 c 0.6016,0.3828 1.2442,0.7109 1.9278,0.9843 0.6835,0.2735 1.3808,0.5196 2.0918,0.7383 v 0.4922 c 0,0.3828 0.123,0.6973 0.3691,0.9434 0.2461,0.2461 0.5605,0.3691 0.9433,0.3691 h 5.4141 c 0.3828,0 0.7109,-0.123 0.9844,-0.3691 0.2734,-0.2461 0.4101,-0.5606 0.4101,-0.9434 v -0.4922 c 0.711,-0.2187 1.4082,-0.4648 2.0918,-0.7383 0.6836,-0.2734 1.3262,-0.6015 1.9278,-0.9843 l 0.4101,0.4922 c 0.1641,0.1093 0.3282,0.1914 0.4922,0.2461 0.1641,0.0546 0.3281,0.082 0.4922,0.082 0.1641,0 0.3281,-0.0274 0.4922,-0.082 0.1641,-0.0547 0.3281,-0.1368 0.4922,-0.2461 l 4.0195,-4.1016 c 0.2734,-0.2734 0.4102,-0.6016 0.4102,-0.9844 0,-0.3828 -0.1368,-0.6836 -0.4102,-0.9023 l -0.4101,-0.4102 c 0.3828,-0.6562 0.7109,-1.3262 0.9843,-2.0097 0.2735,-0.6836 0.4922,-1.3809 0.6563,-2.0918 h 0.4922 c 0.3828,0 0.7109,-0.1231 0.9843,-0.3692 C 83.8633,56.2324 84,55.918 84,55.5352 v -5.4141 c 0,-0.3828 -0.1367,-0.7109 -0.4102,-0.9844 -0.2734,-0.2734 -0.6015,-0.4101 -0.9843,-0.4101 H 82.1133 C 81.9492,48.0156 81.7305,47.332 81.457,46.6758 81.1836,46.0195 80.8555,45.3633 80.4727,44.707 l 0.4101,-0.4101 c 0.1094,-0.1641 0.2051,-0.3281 0.2871,-0.4922 0.0821,-0.1641 0.1231,-0.3281 0.1231,-0.4922 0,-0.1641 -0.041,-0.3281 -0.1231,-0.4922 -0.082,-0.1641 -0.1777,-0.3281 -0.2871,-0.4922 l -4.0195,-4.0195 c -0.2735,-0.2734 -0.6016,-0.4102 -0.9844,-0.4102 -0.3828,0 -0.7109,0.1368 -0.9844,0.4102 l -0.4101,0.4102 c -0.6563,-0.3829 -1.3125,-0.711 -1.9688,-0.9844 -0.6562,-0.2735 -1.3398,-0.4922 -2.0508,-0.6563 v -0.4922 c 0,-0.3828 -0.1367,-0.7109 -0.4101,-0.9843 -0.2735,-0.2735 -0.6016,-0.4102 -0.9844,-0.4102 h -1.3125 v -2.707 z M 42.5742,2.70703 H 70.4648 V 5.41406 H 39.8672 Z m 36.586,26.82417 c 0.1093,0.1094 0.2324,0.1778 0.3691,0.2051 0.1367,0.0274 0.2598,0.041 0.3691,0.041 h 1.3946 v 2.7071 h -3.6914 l -3.6914,-2.461 C 73.8008,29.9141 73.6777,29.8457 73.541,29.8184 73.4043,29.791 73.2812,29.7773 73.1719,29.7773 h -6.2344 l 2.707,-2.707 h 5.8243 z M 54.2227,27.0703 h 6.7265 c 1.1485,0 2.1192,-0.3965 2.9121,-1.1894 0.793,-0.793 1.1895,-1.7637 1.1895,-2.9121 v -5.4141 h 2.707 v 7.6289 L 63.082,29.7773 H 54.2227 Z M 43.3945,48.7266 v 2.707 h -8.2031 v -2.707 z M 32.4844,31.0898 v -4.0195 h 2.707 v 13.5352 h -5.4141 v -8.1211 h 1.3946 c 0.3828,0 0.6972,-0.1367 0.9433,-0.4102 0.2461,-0.2734 0.3692,-0.6015 0.3692,-0.9844 z m -5.4141,-6.7265 h 2.707 v 5.414 h -2.707 z m -12.1406,5.414 h 4.0195 v 5.4141 h -5.414 v -4.1016 c 0,-0.3281 0.1367,-0.6289 0.4101,-0.9023 0.2735,-0.2734 0.6016,-0.4102 0.9844,-0.4102 z m 12.1406,27.0704 h -0.3281 c -0.3281,0 -0.6152,0.0957 -0.8613,0.2871 -0.2461,0.1914 -0.3965,0.4511 -0.4512,0.7793 -0.1094,0.6015 -0.2735,1.1757 -0.4922,1.7226 -0.2187,0.5469 -0.4922,1.0391 -0.8203,1.4766 -0.1641,0.2734 -0.2188,0.5742 -0.1641,0.9023 0.0547,0.3282 0.1914,0.6016 0.4102,0.8203 l 0.8203,0.8203 -2.1328,2.1329 -0.8203,-0.8203 c -0.2188,-0.2188 -0.4922,-0.3555 -0.8203,-0.4102 -0.3282,-0.0547 -0.629,0 -0.9024,0.1641 -0.4922,0.3281 -1.0117,0.6015 -1.5586,0.8203 -0.5469,0.2187 -1.0937,0.4101 -1.6406,0.5742 -0.3281,0.0547 -0.5879,0.2051 -0.7793,0.4512 -0.1914,0.2461 -0.2871,0.5332 -0.2871,0.8613 v 0.2461 h -2.707 v -0.2461 c 0,-0.3281 -0.0957,-0.6152 -0.2872,-0.8613 C 13.0566,66.3223 12.7969,66.1445 12.4688,66.0352 11.9219,65.9258 11.3887,65.7617 10.8691,65.543 10.3496,65.3242 9.81641,65.0508 9.26953,64.7227 8.99609,64.5586 8.70898,64.5039 8.4082,64.5586 8.10742,64.6133 7.84766,64.75 7.62891,64.9688 L 6.80859,65.7891 4.59375,63.6562 5.49609,62.7539 C 5.71484,62.5352 5.83789,62.2754 5.86523,61.9746 5.89258,61.6738 5.82422,61.3867 5.66016,61.1133 5.33203,60.6211 5.05859,60.1016 4.83984,59.5547 4.62109,59.0078 4.45703,58.4609 4.34766,57.9141 4.29297,57.5859 4.14258,57.3262 3.89648,57.1348 3.65039,56.9434 3.36328,56.8477 3.03516,56.8477 H 2.70703 v -2.7071 h 0.32813 c 0.32812,0 0.61523,-0.0957 0.86132,-0.2871 0.2461,-0.1914 0.39649,-0.4512 0.45118,-0.7793 C 4.51172,52.5273 4.70312,51.9805 4.92188,51.4336 5.14062,50.8867 5.38672,50.3672 5.66016,49.875 5.82422,49.6016 5.89258,49.3145 5.86523,49.0137 5.83789,48.7129 5.71484,48.4531 5.49609,48.2344 l -0.90234,-0.8203 2.21484,-2.2149 0.82032,0.9024 c 0.21875,0.2187 0.47851,0.3418 0.77929,0.3691 0.30078,0.0273 0.58789,-0.041 0.86133,-0.2051 0.49219,-0.3281 1.01167,-0.6015 1.55857,-0.8203 0.5469,-0.2187 1.0938,-0.3828 1.6407,-0.4922 0.3281,-0.0547 0.5878,-0.2051 0.7792,-0.4511 0.1915,-0.2461 0.2872,-0.5332 0.2872,-0.8614 v -0.3281 h 2.707 v 0.3281 c 0,0.3282 0.0957,0.6153 0.2871,0.8614 0.1914,0.246 0.4512,0.3964 0.7793,0.4511 0.5469,0.1094 1.0937,0.2735 1.6406,0.4922 0.5469,0.2188 1.0664,0.4922 1.5586,0.8203 0.2734,0.1641 0.5606,0.2324 0.8613,0.2051 0.3008,-0.0273 0.5606,-0.1504 0.7793,-0.3691 l 0.9024,-0.9024 2.1328,2.2149 -0.8203,0.8203 c -0.2188,0.2187 -0.3555,0.4785 -0.4102,0.7793 -0.0547,0.3008 0,0.5879 0.1641,0.8613 0.3281,0.5469 0.6016,1.0801 0.8203,1.5996 0.2187,0.5195 0.3828,1.0527 0.4922,1.5996 0.1094,0.3281 0.2871,0.5879 0.5332,0.7793 0.2461,0.1914 0.5332,0.2871 0.8613,0.2871 h 0.2461 z m 2.707,-2.7071 v -1.3125 c 0,-0.3828 -0.123,-0.7109 -0.3691,-0.9843 -0.2461,-0.2735 -0.5605,-0.4102 -0.9434,-0.4102 H 27.8086 C 27.6992,51.1055 27.5762,50.7773 27.4395,50.4492 27.3027,50.1211 27.1523,49.793 26.9883,49.4648 l 1.0664,-1.1484 c 0.2734,-0.2734 0.4101,-0.5879 0.4101,-0.9434 0,-0.3554 -0.1367,-0.6699 -0.4101,-0.9433 L 23.9531,42.3281 C 23.7344,42.1094 23.4336,42 23.0508,42 c -0.3828,0 -0.711,0.1094 -0.9844,0.3281 L 21,43.4766 C 20.6719,43.2578 20.3301,43.0801 19.9746,42.9434 19.6191,42.8066 19.2773,42.6836 18.9492,42.5742 V 42 c 0,-0.3828 -0.123,-0.7109 -0.3691,-0.9844 -0.2461,-0.2734 -0.5606,-0.4101 -0.9434,-0.4101 h -4.1015 v -2.7071 h 6.8086 c 0.3828,0 0.6972,-0.1367 0.9433,-0.4101 0.2461,-0.2735 0.3691,-0.5742 0.3691,-0.9024 v -6.8086 h 2.7071 v 1.3125 c 0,0.3829 0.1367,0.711 0.4101,0.9844 0.2735,0.2735 0.6016,0.4102 0.9844,0.4102 h 1.3125 V 42 c 0,0.3281 0.1367,0.6289 0.4102,0.9023 0.2734,0.2735 0.6015,0.4102 0.9843,0.4102 h 4.0196 v 10.8281 z m 5.4141,2.7071 v -2.7071 h 8.2031 v 2.7071 z M 68.8242,39.457 c 0.9297,0.1641 1.8184,0.4239 2.666,0.7793 0.8477,0.3555 1.6543,0.8067 2.42,1.3535 0.2734,0.1641 0.5742,0.2325 0.9023,0.2051 0.3281,-0.0273 0.6016,-0.1504 0.8203,-0.3691 l 0.2461,-0.2461 2.1328,2.1328 -0.2461,0.2461 c -0.2187,0.2187 -0.3418,0.4922 -0.3691,0.8203 -0.0274,0.3281 0.041,0.6289 0.2051,0.9023 0.5468,0.7657 0.998,1.5723 1.3535,2.42 0.3554,0.8476 0.6152,1.7363 0.7793,2.666 0.0547,0.3281 0.2051,0.5879 0.4511,0.7793 0.2461,0.1914 0.5333,0.2871 0.8614,0.2871 h 0.2461 v 2.707 h -0.2461 c -0.3281,0 -0.6153,0.1094 -0.8614,0.3282 -0.246,0.2187 -0.3964,0.4921 -0.4511,0.8203 -0.2188,0.9297 -0.4922,1.8183 -0.8203,2.666 -0.3282,0.8476 -0.7657,1.6543 -1.3125,2.4199 -0.1641,0.2734 -0.2325,0.5605 -0.2051,0.8613 0.0273,0.3008 0.1504,0.5879 0.3691,0.8614 l 0.2461,0.164 -2.1328,2.2149 -0.2461,-0.2461 c -0.2187,-0.2188 -0.4922,-0.3418 -0.8203,-0.3692 -0.3281,-0.0273 -0.6289,0.041 -0.9023,0.2051 -0.7657,0.4922 -1.5723,0.916 -2.42,1.2715 -0.8476,0.3555 -1.7363,0.6152 -2.666,0.7793 -0.3281,0.0547 -0.5879,0.2051 -0.7793,0.4512 -0.1914,0.2461 -0.2871,0.5332 -0.2871,0.8613 v 0.2461 h -2.707 v -0.2461 c 0,-0.3281 -0.1094,-0.6152 -0.3281,-0.8613 -0.2188,-0.2461 -0.4922,-0.3965 -0.8204,-0.4512 -0.875,-0.1641 -1.7363,-0.4238 -2.5839,-0.7793 -0.8477,-0.3555 -1.6817,-0.7793 -2.502,-1.2715 -0.2734,-0.2187 -0.5605,-0.3008 -0.8613,-0.2461 -0.3008,0.0547 -0.5606,0.1914 -0.7793,0.4102 l -0.2461,0.2461 -2.1328,-2.2149 0.164,-0.2461 c 0.2735,-0.2187 0.4239,-0.4785 0.4512,-0.7793 C 55.4395,60.9355 55.3438,60.6484 55.125,60.375 54.6328,59.5547 54.209,58.7207 53.8535,57.873 53.498,57.0254 53.2383,56.1641 53.0742,55.2891 53.0195,54.9609 52.8691,54.6875 52.623,54.4688 52.377,54.25 52.0898,54.1406 51.7617,54.1406 h -0.2461 v -2.707 h 0.2461 c 0.3281,0 0.6153,-0.0957 0.8613,-0.2871 0.2461,-0.1914 0.3965,-0.4512 0.4512,-0.7793 0.1641,-0.9297 0.4238,-1.8184 0.7793,-2.666 0.3555,-0.8477 0.7793,-1.6543 1.2715,-2.42 0.1641,-0.2734 0.2324,-0.5742 0.2051,-0.9023 -0.0274,-0.3281 -0.1504,-0.6016 -0.3692,-0.8203 l -0.2461,-0.2461 2.2149,-2.1328 0.1641,0.2461 c 0.2734,0.2187 0.5605,0.3418 0.8613,0.3691 0.3008,0.0274 0.5879,-0.041 0.8613,-0.2051 0.7656,-0.5468 1.5723,-0.9843 2.4199,-1.3125 0.8477,-0.3281 1.7364,-0.6015 2.666,-0.8203 0.3282,-0.0547 0.6016,-0.205 0.8204,-0.4511 0.2187,-0.2461 0.3281,-0.5332 0.3281,-0.8614 v -0.2461 h 2.707 v 0.2461 c 0,0.3282 0.0957,0.6153 0.2871,0.8614 0.1914,0.2461 0.4512,0.3964 0.7793,0.4511 z m -3.7734,-4.2656 h -1.3946 c -0.3828,0 -0.6972,0.1367 -0.9433,0.4102 -0.2461,0.2734 -0.3691,0.6015 -0.3691,0.9843 v 0.4922 c -0.711,0.1641 -1.4083,0.3828 -2.0918,0.6563 -0.6836,0.2734 -1.3536,0.6015 -2.0098,0.9844 L 57.832,38.3086 c -0.1093,-0.1094 -0.2461,-0.2051 -0.4101,-0.2871 -0.1641,-0.082 -0.3281,-0.1231 -0.4922,-0.1231 -0.2188,0 -0.4102,0.0411 -0.5742,0.1231 -0.1641,0.082 -0.3008,0.1777 -0.4102,0.2871 l -4.1015,4.0195 c -0.2188,0.2735 -0.3282,0.6016 -0.3282,0.9844 0,0.3828 0.1094,0.7109 0.3282,0.9844 l 0.4921,0.4101 c -0.3828,0.6016 -0.7109,1.2442 -0.9843,1.9278 -0.2735,0.6836 -0.4922,1.3808 -0.6563,2.0918 h -0.5742 c -0.3828,0 -0.6973,0.1367 -0.9434,0.4101 -0.2461,0.2735 -0.3691,0.6016 -0.3691,0.9844 v 4.0195 h -2.707 V 42.6562 L 60.0469,32.4844 h 5.0039 z m -8.1211,17.6367 c 0,2.625 0.916,4.8535 2.748,6.6856 1.8321,1.832 4.0606,2.748 6.6856,2.748 2.625,0 4.8672,-0.916 6.7265,-2.748 1.8594,-1.8321 2.7891,-4.0606 2.7891,-6.6856 0,-2.625 -0.9297,-4.8672 -2.7891,-6.7265 -1.8593,-1.8594 -4.1015,-2.7891 -6.7265,-2.7891 -2.625,0 -4.8535,0.9297 -6.6856,2.7891 -1.832,1.8593 -2.748,4.1015 -2.748,6.7265 z m 16.2422,0 c 0,1.8594 -0.6699,3.4453 -2.0098,4.7578 -1.3398,1.3125 -2.9394,1.9688 -4.7988,1.9688 -1.8594,0 -3.4453,-0.6563 -4.7578,-1.9688 -1.3125,-1.3125 -1.9688,-2.8984 -1.9688,-4.7578 0,-1.8593 0.6563,-3.459 1.9688,-4.7988 1.3125,-1.3398 2.8984,-2.0098 4.7578,-2.0098 1.8594,0 3.459,0.67 4.7988,2.0098 1.3399,1.3398 2.0098,2.9395 2.0098,4.7988 z"
         fill="#ffffff"
         id="path1" /></g><g
       style="fill:none"
       id="g9"
       transform="matrix(0.26458333,0,0,0.26458333,57.944585,51.696907)"><path
         d="m 82.7695,81.2109 h -2.707 c -0.1641,-0.9297 -0.5332,-1.7636 -1.1074,-2.5019 -0.5742,-0.7383 -1.2715,-1.2988 -2.0918,-1.6817 -0.6016,-0.2734 -1.1895,-0.4375 -1.7637,-0.4921 -0.5742,-0.0547 -1.0801,-0.0547 -1.5176,0 -0.2187,-0.7657 -0.5742,-1.4493 -1.0664,-2.0508 -0.4922,-0.6016 -1.0937,-1.0664 -1.8047,-1.3946 -0.6562,-0.3281 -1.2988,-0.4921 -1.9277,-0.4921 -0.6289,0 -1.1621,0.0273 -1.5996,0.082 0,-0.0547 0,-0.8203 0,-2.2969 0,-1.4766 0,-3.0762 0,-4.7988 0,-1.7227 0,-3.2949 0,-4.7168 0,-1.4766 0,-2.2149 0,-2.2149 l 4.1016,-4.1015 h 3.5273 c 2.2422,0 4.1563,-0.793 5.7422,-2.3789 1.5859,-1.586 2.3789,-3.5 2.3789,-5.7422 v -3.3633 c 0,-0.4922 -0.1914,-0.9297 -0.5742,-1.3125 -0.3828,-0.3828 -0.8203,-0.5742 -1.3125,-0.5742 h -3.3633 c -2.2422,0 -4.1563,0.8066 -5.7422,2.4199 -1.5859,1.6133 -2.3789,3.541 -2.3789,5.7832 v 3.4453 L 67.1836,55.207 V 41.0977 l 2.4609,-2.461 c 1.586,-1.5859 2.3789,-3.5 2.3789,-5.7422 0,-2.2422 -0.7929,-4.1562 -2.3789,-5.7422 l -2.3789,-2.3789 c -0.164,-0.164 -0.3554,-0.3007 -0.5742,-0.4101 -0.2187,-0.1094 -0.4648,-0.1641 -0.7383,-0.1641 -0.2734,0 -0.5195,0.0547 -0.7383,0.1641 -0.2187,0.1094 -0.4101,0.2461 -0.5742,0.4101 l -2.3789,2.3789 c -1.5859,1.586 -2.3789,3.5 -2.3789,5.7422 0,2.2422 0.793,4.1563 2.3789,5.7422 l 2.461,2.461 V 62.5898 L 62.3438,60.2109 V 55.125 c 0,-3.0078 -1.0665,-5.5781 -3.1993,-7.7109 -2.1328,-2.1329 -4.7031,-3.1993 -7.7109,-3.1993 h -4.9219 c -0.5469,0 -0.998,0.1778 -1.3535,0.5332 -0.3555,0.3555 -0.5332,0.8067 -0.5332,1.3536 v 4.9218 c 0,3.0078 1.0664,5.5782 3.1992,7.711 2.1328,2.1328 4.7031,3.1992 7.711,3.1992 h 5.0859 l 4.1016,4.1016 v 4.5117 c -0.9297,-0.875 -2.1192,-1.709 -3.5684,-2.502 -1.4492,-0.7929 -3.1309,-1.2441 -5.0449,-1.3535 -0.0547,0 -0.2461,-0.0137 -0.5742,-0.041 -0.3282,-0.0274 -0.7383,-0.0137 -1.2305,0.041 -0.3828,0 -0.6836,0.1367 -0.9024,0.4102 -0.2187,0.2734 -0.3007,0.5742 -0.2461,0.9023 0,0.3281 0.1368,0.6016 0.4102,0.8203 0.2734,0.2188 0.5742,0.3281 0.9024,0.3281 0.4374,-0.0546 0.7792,-0.0683 1.0253,-0.041 0.2461,0.0274 0.3965,0.041 0.4512,0.041 2.4609,0.1641 4.4434,0.9024 5.9473,2.2149 1.5039,1.3125 2.5293,2.3516 3.0762,3.1172 0.2734,0.3828 0.6152,0.6426 1.0253,0.7793 0.4102,0.1367 0.834,0.123 1.2715,-0.041 0.3282,-0.1094 0.6973,-0.1778 1.1074,-0.2051 0.4102,-0.0274 0.834,0.0683 1.2715,0.2871 0.4375,0.2187 0.793,0.5058 1.0664,0.8613 0.2735,0.3555 0.4649,0.7793 0.5743,1.2715 0.164,0.5469 0.4648,0.9707 0.9023,1.2715 0.4375,0.3008 0.9297,0.3965 1.4766,0.2871 0.2734,-0.0547 0.6015,-0.082 0.9843,-0.082 0.3828,0 0.7657,0.1093 1.1485,0.3281 0.3828,0.164 0.7246,0.4238 1.0254,0.7793 0.3007,0.3555 0.5332,0.7519 0.6972,1.1894 H 39.0469 c 0.0547,-0.3281 0.1777,-0.6562 0.3691,-0.9843 0.1914,-0.3282 0.4238,-0.5743 0.6973,-0.7383 0.2734,-0.2188 0.5605,-0.3418 0.8613,-0.3692 0.3008,-0.0273 0.5606,-0.0136 0.7793,0.0411 0.5469,0.0546 1.0391,-0.0821 1.4766,-0.4102 0.4375,-0.3281 0.7109,-0.7383 0.8203,-1.2305 0.1094,-0.7656 0.3144,-1.4765 0.6152,-2.1328 0.3008,-0.6562 0.6426,-1.2578 1.0254,-1.8047 0.4922,-0.6562 1.0391,-1.2441 1.6406,-1.7636 0.6016,-0.5196 1.2852,-0.9707 2.0508,-1.3536 0.3281,-0.164 0.5332,-0.4101 0.6152,-0.7382 0.0821,-0.3282 0.0684,-0.6289 -0.041,-0.9024 -0.164,-0.3281 -0.4101,-0.5469 -0.7382,-0.6562 -0.3282,-0.1094 -0.629,-0.0821 -0.9024,0.082 -0.9297,0.4922 -1.7773,1.0527 -2.543,1.6816 -0.7656,0.6289 -1.4492,1.3536 -2.0507,2.1739 -0.4922,0.6562 -0.9024,1.3672 -1.2305,2.1328 -0.3281,0.7656 -0.6016,1.5586 -0.8203,2.3789 -0.1094,0 -0.2324,0 -0.3692,0 -0.1367,0 -0.2597,0.0273 -0.3691,0.082 -0.2188,-0.8203 -0.5742,-1.5449 -1.0664,-2.1738 -0.4922,-0.6289 -1.1211,-1.1074 -1.8867,-1.4356 -0.7657,-0.3828 -1.5039,-0.5605 -2.2149,-0.5332 -0.7109,0.0274 -1.2851,0.1231 -1.7226,0.2872 -0.7657,-1.0391 -2.1328,-2.3379 -4.1016,-3.8965 -1.9687,-1.5586 -4.4297,-2.3379 -7.3828,-2.3379 v -7.793 l 4.1836,-4.1016 h 3.4453 c 2.2422,0 4.1563,-0.7929 5.7422,-2.3789 1.5859,-1.5859 2.3789,-3.5 2.3789,-5.7421 v -3.3633 c 0,-0.4922 -0.1777,-0.9297 -0.5332,-1.3125 -0.3555,-0.3828 -0.8066,-0.5742 -1.3535,-0.5742 h -3.2813 c -2.2422,0 -4.1699,0.8066 -5.7832,2.4199 -1.6133,1.6133 -2.4199,3.541 -2.4199,5.7832 v 3.4453 l -2.3789,2.3789 V 36.668 l 4.1836,-4.1016 h 3.4453 c 2.2422,0 4.1563,-0.793 5.7422,-2.3789 1.5859,-1.5859 2.3789,-3.5 2.3789,-5.7422 V 21.082 c 0,-0.4922 -0.1777,-0.9297 -0.5332,-1.3125 -0.3555,-0.3828 -0.8066,-0.5742 -1.3535,-0.5742 h -3.2813 c -2.2422,0 -4.1699,0.8067 -5.7832,2.4199 -1.6133,1.6133 -2.4199,3.541 -2.4199,5.7832 v 3.4454 l -2.3789,2.3789 V 16.8164 l 2.4609,-2.4609 c 1.586,-1.586 2.3789,-3.5 2.3789,-5.74222 0,-2.24219 -0.7929,-4.15625 -2.3789,-5.74219 L 22.7227,0.492188 C 22.5039,0.328125 22.2852,0.205078 22.0664,0.123047 21.8477,0.0410156 21.6016,0 21.3281,0 21.1094,0 20.877,0.0410156 20.6309,0.123047 20.3848,0.205078 20.1797,0.328125 20.0156,0.492188 L 17.6367,2.87109 c -1.5859,1.58594 -2.3789,3.5 -2.3789,5.74219 0,2.24222 0.793,4.15622 2.3789,5.74222 l 2.461,2.4609 v 23.7891 l -2.3789,-2.3789 v -5.086 c 0,-0.8203 -0.0821,-1.6269 -0.2461,-2.4199 -0.1641,-0.793 -0.4375,-1.5723 -0.8204,-2.3379 -0.164,-0.2734 -0.3964,-0.4648 -0.6972,-0.5742 -0.3008,-0.1094 -0.6153,-0.1094 -0.9434,0 -0.2734,0.1641 -0.4785,0.4102 -0.6152,0.7383 -0.1367,0.3281 -0.1231,0.6289 0.041,0.9023 0.2734,0.6016 0.4785,1.2031 0.6152,1.8047 0.1368,0.6016 0.2051,1.2305 0.2051,1.8867 v 2.625 L 10.5,30.9258 C 10.2266,30.707 9.92578,30.5977 9.59766,30.5977 c -0.32813,0 -0.62891,0.1093 -0.90235,0.3281 -0.21875,0.2734 -0.32812,0.5742 -0.32812,0.9023 0,0.3281 0.10937,0.6016 0.32812,0.8203 l 4.83989,4.8399 h -2.625 c -2.29692,0 -4.27934,-0.8203 -5.94731,-2.461 C 3.29492,33.3867 2.46094,31.3906 2.46094,29.0391 v -4.3477 h 4.34765 c 0.76563,0 1.51758,0.0957 2.25586,0.2871 0.73828,0.1914 1.40825,0.4785 2.00975,0.8613 0.3281,0.1641 0.6563,0.2051 0.9844,0.1231 0.3281,-0.082 0.5742,-0.2598 0.7383,-0.5332 0.164,-0.3281 0.2051,-0.6563 0.123,-0.9844 C 12.8379,24.1172 12.6602,23.8711 12.3867,23.707 11.5117,23.2148 10.6094,22.8457 9.67969,22.5996 8.75,22.3535 7.79297,22.2305 6.80859,22.2305 H 1.88672 c -0.54688,0 -0.998048,0.1777 -1.353517,0.5332 C 0.177734,23.1191 0,23.5703 0,24.1172 v 4.9219 c 0,3.0078 1.06641,5.5781 3.19922,7.7109 2.13281,2.1328 4.70312,3.1992 7.71098,3.1992 h 5.0859 l 4.1016,4.1016 v 21.164 l -1.5586,-1.5586 v -4.3476 c 0,-2.625 -0.9297,-4.8809 -2.7891,-6.7676 -1.8594,-1.8867 -4.1289,-2.8301 -6.80859,-2.8301 h -4.1836 c -0.49219,0 -0.92969,0.1914 -1.3125,0.5743 -0.38281,0.3828 -0.57422,0.8203 -0.57422,1.3125 v 4.1835 c 0,2.625 0.94336,4.8809 2.83008,6.7676 1.88672,1.8867 4.16992,2.8301 6.84963,2.8301 h 4.2656 l 1.8047,1.8047 c -1.2578,0.2734 -2.584,0.793 -3.9785,1.5586 -1.3946,0.7656 -2.6114,1.8867 -3.6504,3.3633 -0.4922,0.6562 -0.9024,1.3672 -1.23048,2.1328 -0.32813,0.7656 -0.60156,1.5586 -0.82031,2.3789 -0.38282,0 -0.83399,0.0547 -1.35352,0.164 -0.51953,0.1094 -1.02539,0.3282 -1.51758,0.6563 -0.65625,0.3828 -1.17578,0.916 -1.55859,1.5996 -0.38281,0.6836 -0.60156,1.4082 -0.65625,2.1738 h -2.625 c -0.328126,0 -0.615236,0.1231 -0.861329,0.3692 C 0.123047,81.8262 0,82.1133 0,82.4414 c 0,0.3828 0.123047,0.6836 0.369141,0.9024 0.246093,0.2187 0.533203,0.3281 0.861329,0.3281 H 82.7695 c 0.3282,0 0.6153,-0.1094 0.8614,-0.3281 C 83.877,83.125 84,82.8242 84,82.4414 84,82.1133 83.877,81.8262 83.6309,81.5801 83.3848,81.334 83.0977,81.2109 82.7695,81.2109 Z M 72.0234,49.3828 c 0,-1.5859 0.5606,-2.9394 1.6817,-4.0605 1.1211,-1.1211 2.4472,-1.6817 3.9785,-1.6817 h 2.7891 v 2.7891 c 0,1.5312 -0.5606,2.8574 -1.6817,3.9785 -1.1211,1.1211 -2.4472,1.6816 -3.9785,1.6816 h -1.0664 l 2.543,-2.4609 c 0.2187,-0.2734 0.3281,-0.5742 0.3281,-0.9023 0,-0.3282 -0.1094,-0.6016 -0.3281,-0.8204 -0.2735,-0.2734 -0.5743,-0.4101 -0.9024,-0.4101 -0.3281,0 -0.6289,0.1367 -0.9023,0.4101 l -2.461,2.461 z M 59.8828,57.75 55.043,52.9102 c -0.2188,-0.2188 -0.5059,-0.3282 -0.8614,-0.3282 -0.3554,0 -0.6425,0.1094 -0.8613,0.3282 -0.2187,0.2734 -0.3281,0.5742 -0.3281,0.9023 0,0.3281 0.1094,0.6016 0.3281,0.8203 l 4.8399,4.8399 h -2.625 c -2.3516,0 -4.3477,-0.8204 -5.9883,-2.461 -1.6407,-1.6406 -2.461,-3.6367 -2.461,-5.9883 v -4.3476 h 4.3477 c 2.2969,0 4.2793,0.8203 5.9473,2.4609 1.6679,1.6406 2.5019,3.6367 2.5019,5.9883 z m 6.0703,-24.8555 c -0.3281,0 -0.6152,0.1231 -0.8613,0.3692 -0.2461,0.2461 -0.3691,0.5332 -0.3691,0.8613 v 3.5273 l -0.7383,-0.7382 c -1.0938,-1.0938 -1.6406,-2.4336 -1.6406,-4.0196 0,-1.5859 0.5468,-2.9257 1.6406,-4.0195 l 1.9687,-1.9688 1.9688,1.9688 c 1.0937,1.0938 1.6406,2.4336 1.6406,4.0195 0,1.586 -0.5469,2.9258 -1.6406,4.0196 l -0.7383,0.7382 V 34.125 c 0,-0.3281 -0.1231,-0.6152 -0.3691,-0.8613 -0.2461,-0.2461 -0.5333,-0.3692 -0.8614,-0.3692 z M 27.3984,49.5469 c 0,-1.586 0.5606,-2.9395 1.6817,-4.0606 1.1211,-1.1211 2.4746,-1.6816 4.0605,-1.6816 h 2.7071 v 2.7891 c 0,1.5312 -0.5469,2.8574 -1.6407,3.9785 -1.0937,1.1211 -2.4336,1.6816 -4.0195,1.6816 h -0.9844 l 2.461,-2.4609 c 0.2187,-0.2735 0.3281,-0.5742 0.3281,-0.9024 0,-0.3281 -0.1094,-0.6015 -0.3281,-0.8203 -0.2735,-0.2734 -0.5743,-0.4101 -0.9024,-0.4101 -0.3281,0 -0.6015,0.1367 -0.8203,0.4101 l -2.543,2.4609 z m 0,-22.1485 c 0,-1.5859 0.5606,-2.9394 1.6817,-4.0605 1.1211,-1.1211 2.4746,-1.6817 4.0605,-1.6817 h 2.7071 v 2.7891 c 0,1.5313 -0.5469,2.8574 -1.6407,3.9785 -1.0937,1.1211 -2.4336,1.6817 -4.0195,1.6817 h -0.9844 l 2.461,-2.461 c 0.2187,-0.2734 0.3281,-0.5742 0.3281,-0.9023 0,-0.3281 -0.1094,-0.6016 -0.3281,-0.8203 -0.2735,-0.2735 -0.5743,-0.4102 -0.9024,-0.4102 -0.3281,0 -0.6015,0.1367 -0.8203,0.4102 l -2.543,2.4609 z M 16.0781,61.1953 12.2227,57.3398 c -0.2188,-0.2734 -0.5059,-0.4101 -0.8614,-0.4101 -0.3554,0 -0.6425,0.1367 -0.8613,0.4101 -0.2188,0.2188 -0.3281,0.5059 -0.3281,0.8614 0,0.3554 0.1093,0.6426 0.3281,0.8613 l 3.8555,3.8555 H 12.5508 C 10.582,62.918 8.88672,62.2207 7.46484,60.8262 6.04297,59.4316 5.33203,57.75 5.33203,55.7812 v -3.6093 h 3.60938 c 1.96879,0 3.65039,0.6972 5.04489,2.0918 1.3946,1.3945 2.0918,3.0761 2.0918,5.0449 z M 20.0977,9.84375 v 3.52735 l -0.6563,-0.7383 c -1.1484,-1.0937 -1.7226,-2.4199 -1.7226,-3.9785 0,-1.5586 0.5742,-2.91211 1.7226,-4.06055 l 1.8867,-1.88672 1.9688,1.88672 c 1.0937,1.14844 1.6406,2.50195 1.6406,4.06055 0,1.5586 -0.5469,2.8848 -1.6406,3.9785 l -0.7383,0.7383 V 9.84375 c 0,-0.32813 -0.1094,-0.61523 -0.3281,-0.86133 -0.2188,-0.24609 -0.5196,-0.36914 -0.9024,-0.36914 -0.3281,0 -0.6152,0.12305 -0.8613,0.36914 -0.2461,0.2461 -0.3691,0.5332 -0.3691,0.86133 z M 36.5039,81.2109 H 21.4922 c -0.0547,0 -0.082,0 -0.082,0 0,0 -0.0274,0 -0.0821,0 0,0 -0.0136,0 -0.041,0 -0.0273,0 -0.041,0 -0.041,0 H 6.31641 c 0.05468,-0.3281 0.17773,-0.6562 0.36914,-0.9843 0.1914,-0.3282 0.42383,-0.5743 0.69726,-0.7383 0.27344,-0.2188 0.56055,-0.3418 0.86133,-0.3692 0.30078,-0.0273 0.56055,-0.0136 0.7793,0.0411 0.54687,0.0546 1.03906,-0.0821 1.47656,-0.4102 0.4375,-0.3281 0.7109,-0.7383 0.8203,-1.2305 0.1094,-0.7656 0.3145,-1.4765 0.6152,-2.1328 0.3008,-0.6562 0.6426,-1.2578 1.0254,-1.8047 1.75,-2.4609 3.8829,-3.8144 6.3985,-4.0605 2.5156,-0.2461 3.8008,-0.3692 3.8554,-0.3692 2.461,0.1641 4.4434,0.9024 5.9473,2.2149 1.5039,1.3125 2.5293,2.3516 3.0762,3.1172 0.2734,0.3828 0.6289,0.6426 1.0664,0.7793 0.4375,0.1367 0.8476,0.123 1.2305,-0.041 0.3281,-0.1094 0.6972,-0.1778 1.1074,-0.2051 0.4101,-0.0274 0.834,0.0683 1.2715,0.2871 0.4375,0.2187 0.8066,0.5195 1.1074,0.9023 0.3008,0.3828 0.5058,0.8203 0.6152,1.3125 -0.6015,0.4375 -1.0801,0.9844 -1.4355,1.6407 -0.3555,0.6562 -0.5879,1.3398 -0.6973,2.0507 z"
         fill="#ffffff"
         id="path1-3" /></g><g
       style="fill:none"
       id="g10"
       transform="matrix(0.26458333,0,0,0.26458333,22.902907,52.348033)"><path
         d="m 21,76.125 h -2.3789 c -1.6406,0 -3.0762,-0.5332 -4.3066,-1.5996 C 13.084,73.459 12.3594,72.1328 12.1406,70.5469 V 70.4648 L 8.61328,45.7734 C 8.55859,45.4453 8.4082,45.1719 8.16211,44.9531 7.91602,44.7344 7.62891,44.625 7.30078,44.625 c -0.32812,0 -0.6289,0.123 -0.90234,0.3691 -0.27344,0.2461 -0.41016,0.5606 -0.41016,0.9434 0,0.0547 0,0.0957 0,0.123 0,0.0274 0,0.0411 0,0.0411 L 9.51562,70.875 c 0.38282,2.2422 1.42188,4.1152 3.11718,5.6191 1.6953,1.5039 3.6914,2.2559 5.9883,2.2559 H 21 c 0.3828,0 0.6973,-0.123 0.9434,-0.3691 0.2461,-0.2461 0.3691,-0.5606 0.3691,-0.9434 0,-0.3828 -0.123,-0.6973 -0.3691,-0.9434 C 21.6973,76.248 21.3828,76.125 21,76.125 Z M 36.75,63 c -0.3828,0 -0.6973,0.123 -0.9434,0.3691 -0.2461,0.2461 -0.3691,0.5606 -0.3691,0.9434 v 5.25 c 0,1.0937 0.3828,2.0234 1.1484,2.7891 0.7657,0.7656 1.6953,1.1484 2.7891,1.1484 1.0938,0 2.0234,-0.3828 2.7891,-1.1484 0.7656,-0.7657 1.1484,-1.6954 1.1484,-2.7891 v -15.75 c 0,-1.0937 -0.3828,-2.0234 -1.1484,-2.7891 -0.7657,-0.7656 -1.6953,-1.1484 -2.7891,-1.1484 -1.0938,0 -2.0234,0.3828 -2.7891,1.1484 -0.7656,0.7657 -1.1484,1.6954 -1.1484,2.7891 v 5.25 c 0,0.3828 0.123,0.6973 0.3691,0.9434 0.2461,0.2461 0.5606,0.3691 0.9434,0.3691 0.3828,0 0.6973,-0.123 0.9434,-0.3691 0.2461,-0.2461 0.3691,-0.5606 0.3691,-0.9434 v -5.25 c 0,-0.3828 0.123,-0.6973 0.3691,-0.9434 C 38.6777,52.623 38.9922,52.5 39.375,52.5 c 0.3828,0 0.6973,0.123 0.9434,0.3691 0.2461,0.2461 0.3691,0.5606 0.3691,0.9434 v 15.75 c 0,0.3828 -0.123,0.6973 -0.3691,0.9434 -0.2461,0.2461 -0.5606,0.3691 -0.9434,0.3691 -0.3828,0 -0.6973,-0.123 -0.9434,-0.3691 -0.2461,-0.2461 -0.3691,-0.5606 -0.3691,-0.9434 v -5.25 c 0,-0.3828 -0.123,-0.6973 -0.3691,-0.9434 C 37.4473,63.123 37.1328,63 36.75,63 Z M 18.375,49.875 c -1.0938,0 -2.0234,0.3828 -2.7891,1.1484 -0.7656,0.7657 -1.1484,1.6954 -1.1484,2.7891 v 15.75 c 0,1.0937 0.3828,2.0234 1.1484,2.7891 0.7657,0.7656 1.6953,1.1484 2.7891,1.1484 1.0938,0 2.0234,-0.3828 2.7891,-1.1484 0.7656,-0.7657 1.1484,-1.6954 1.1484,-2.7891 v -15.75 c 0,-1.0937 -0.3828,-2.0234 -1.1484,-2.7891 C 20.3984,50.2578 19.4688,49.875 18.375,49.875 Z m 1.3125,19.6875 c 0,0.3828 -0.123,0.6973 -0.3691,0.9434 -0.2461,0.2461 -0.5606,0.3691 -0.9434,0.3691 -0.3828,0 -0.6973,-0.123 -0.9434,-0.3691 -0.2461,-0.2461 -0.3691,-0.5606 -0.3691,-0.9434 v -15.75 c 0,-0.3828 0.123,-0.6973 0.3691,-0.9434 C 17.6777,52.623 17.9922,52.5 18.375,52.5 c 0.3828,0 0.6973,0.123 0.9434,0.3691 0.2461,0.2461 0.3691,0.5606 0.3691,0.9434 z m 5.25,-15.75 v 15.75 c 0,1.0937 0.3828,2.0234 1.1484,2.7891 0.7657,0.7656 1.6953,1.1484 2.7891,1.1484 1.0938,0 2.0234,-0.3828 2.7891,-1.1484 0.7656,-0.7657 1.1484,-1.6954 1.1484,-2.7891 v -15.75 c 0,-1.0937 -0.3828,-2.0234 -1.1484,-2.7891 -0.7657,-0.7656 -1.6953,-1.1484 -2.7891,-1.1484 -1.0938,0 -2.0234,0.3828 -2.7891,1.1484 -0.7656,0.7657 -1.1484,1.6954 -1.1484,2.7891 z m 5.25,0 v 15.75 c 0,0.3828 -0.123,0.6973 -0.3691,0.9434 -0.2461,0.2461 -0.5606,0.3691 -0.9434,0.3691 -0.3828,0 -0.6973,-0.123 -0.9434,-0.3691 -0.2461,-0.2461 -0.3691,-0.5606 -0.3691,-0.9434 v -15.75 c 0,-0.3828 0.123,-0.6973 0.3691,-0.9434 C 28.1777,52.623 28.4922,52.5 28.875,52.5 c 0.3828,0 0.6973,0.123 0.9434,0.3691 0.2461,0.2461 0.3691,0.5606 0.3691,0.9434 z M 57.75,47.25 c 0.3828,0 0.6973,-0.123 0.9434,-0.3691 0.2461,-0.2461 0.3691,-0.5606 0.3691,-0.9434 0,-0.3828 -0.123,-0.6973 -0.3691,-0.9434 C 58.4473,44.748 58.1328,44.625 57.75,44.625 h -9.1875 c -0.3828,0 -0.6973,0.123 -0.9434,0.3691 -0.2461,0.2461 -0.3691,0.5606 -0.3691,0.9434 0,0.3828 0.123,0.6973 0.3691,0.9434 0.2461,0.2461 0.5606,0.3691 0.9434,0.3691 z M 30.1875,44.625 h -15.75 c -0.3828,0 -0.6973,0.123 -0.9434,0.3691 -0.2461,0.2461 -0.3691,0.5606 -0.3691,0.9434 0,0.3828 0.123,0.6973 0.3691,0.9434 0.2461,0.2461 0.5606,0.3691 0.9434,0.3691 h 15.75 c 0.3828,0 0.6973,-0.123 0.9434,-0.3691 C 31.377,46.6348 31.5,46.3203 31.5,45.9375 31.5,45.5547 31.377,45.2402 31.1309,44.9941 30.8848,44.748 30.5703,44.625 30.1875,44.625 Z m 43.2305,9.2695 c 0.8203,-0.6015 1.4765,-1.3672 1.9687,-2.2968 0.4922,-0.9297 0.7383,-1.9415 0.7383,-3.0352 0,-0.3828 -0.123,-0.6973 -0.3691,-0.9434 C 75.5098,47.373 75.1953,47.25 74.8125,47.25 H 72.5977 L 73.3359,42 h 1.4766 c 1.0937,0 2.0234,-0.3828 2.7891,-1.1484 0.7656,-0.7657 1.1484,-1.6954 1.1484,-2.7891 0,-1.0937 -0.3828,-2.0234 -1.1484,-2.7891 -0.7657,-0.7656 -1.6954,-1.1484 -2.7891,-1.1484 h -8.2031 l 1.1484,-2.543 c 0.4375,0.3282 0.916,0.5879 1.4356,0.7793 0.5195,0.1914 1.08,0.2871 1.6816,0.2871 1.2031,0 2.2695,-0.3554 3.1992,-1.0664 0.9297,-0.7109 1.5586,-1.6406 1.8867,-2.789 0.0547,-0.2188 0.0957,-0.4375 0.1231,-0.6563 0.0273,-0.2187 0.041,-0.4375 0.041,-0.6562 0,-0.0547 0,-0.0957 0,-0.1231 0,-0.0273 0,-0.0683 0,-0.123 0.7656,-0.4375 1.3945,-1.0664 1.8867,-1.8867 0.4922,-0.8204 0.7383,-1.6954 0.7383,-2.625 0,-0.7657 -0.1504,-1.4903 -0.4512,-2.1739 -0.3008,-0.6836 -0.7246,-1.2715 -1.2715,-1.7636 0.1094,-0.2188 0.2325,-0.4786 0.3692,-0.7793 0.1367,-0.3008 0.2324,-0.6153 0.2871,-0.9434 h 0.082 c 0.0547,-0.3281 0.1094,-0.6699 0.1641,-1.0254 0.0547,-0.3555 0.082,-0.6973 0.082,-1.0254 0,-1.0937 -0.2051,-2.1191 -0.6152,-3.0762 -0.4102,-0.957 -0.9707,-1.791 -1.6817,-2.50191 C 75.6055,9.32422 75.4688,9.24219 75.3047,9.1875 75.1406,9.13281 74.9766,9.10547 74.8125,9.10547 c -0.3828,0 -0.6973,0.12305 -0.9434,0.36914 C 73.623,9.7207 73.5,10.0352 73.5,10.418 c 0,0.164 0.0273,0.3281 0.082,0.4922 0.0547,0.164 0.1641,0.3007 0.3282,0.4101 0.4375,0.4922 0.7929,1.0527 1.0664,1.6817 0.2734,0.6289 0.4101,1.2988 0.4101,2.0097 0,1.0938 -0.3144,2.0918 -0.9433,2.9942 -0.6289,0.9023 -1.4629,1.5175 -2.502,1.8457 v 0.082 c -0.2187,0.0547 -0.4102,0.1914 -0.5742,0.4102 -0.1641,0.2187 -0.2461,0.4648 -0.2461,0.7382 0,0.1641 -0.0137,0.3282 -0.041,0.4922 -0.0274,0.1641 -0.0684,0.3281 -0.1231,0.4922 v -0.082 c -0.2187,0.875 -0.6836,1.5859 -1.3945,2.1328 -0.7109,0.5469 -1.5039,0.8203 -2.3789,0.8203 -0.9297,0 -1.7363,-0.2734 -2.4199,-0.8203 -0.6836,-0.5469 -1.1348,-1.2305 -1.3535,-2.0508 0,0 0,-0.0273 0,-0.082 -0.0547,-0.1094 -0.0957,-0.2598 -0.1231,-0.4512 -0.0273,-0.1914 -0.041,-0.3691 -0.041,-0.5332 0,-0.7109 0.1777,-1.3672 0.5332,-1.9688 0.3555,-0.6015 0.8066,-1.0937 1.3535,-1.4765 h 0.082 c 0.1641,-0.1094 0.3145,-0.2598 0.4512,-0.4512 0.1367,-0.1914 0.2051,-0.4238 0.2051,-0.6973 0,-0.3281 -0.1367,-0.6289 -0.4102,-0.9023 -0.2734,-0.2734 -0.5742,-0.4101 -0.9023,-0.4101 -0.1641,0 -0.3008,0.0273 -0.4102,0.082 -0.1093,0.0547 -0.1914,0.1094 -0.2461,0.164 -0.9843,0.5469 -1.7773,1.3262 -2.3789,2.3379 -0.6015,1.0118 -0.9023,2.1192 -0.9023,3.3223 0,0.0547 0,0.1367 0,0.2461 0,0.1094 0,0.2187 0,0.3281 v -0.082 c -0.1094,0.0547 -0.2324,0.082 -0.3691,0.082 -0.1368,0 -0.2872,0 -0.4512,0 -0.1641,0 -0.3281,0 -0.4922,0 -0.1641,0 -0.3281,-0.0273 -0.4922,-0.082 h 0.082 c -0.6015,-0.1641 -1.1074,-0.4238 -1.5175,-0.7793 -0.4102,-0.3555 -0.752,-0.7793 -1.0254,-1.2715 0,-0.0547 0,-0.082 0,-0.082 -0.1094,-0.2735 -0.2051,-0.5469 -0.2871,-0.8203 -0.0821,-0.2735 -0.1231,-0.5743 -0.1231,-0.9024 0,0 0,-0.0273 0,-0.082 0,-0.3281 -0.123,-0.6289 -0.3691,-0.9024 -0.2461,-0.2734 -0.5606,-0.4101 -0.9434,-0.4101 -0.3281,0 -0.6289,0.123 -0.9023,0.3691 -0.2735,0.2461 -0.4102,0.5606 -0.4102,0.9434 0,0 0,0.0137 0,0.041 0,0.0273 0,0.041 0,0.041 0,0.3281 0.0274,0.6289 0.082,0.9024 0.0547,0.2734 0.1094,0.5468 0.1641,0.8203 -0.2187,0.0547 -0.4375,0.1094 -0.6562,0.164 -0.2188,0.0547 -0.4375,0.0821 -0.6563,0.0821 -0.1641,0 -0.3281,-0.0137 -0.4922,-0.041 -0.164,-0.0274 -0.3281,-0.0684 -0.4922,-0.1231 C 50.832,19.332 50.4492,19.168 50.1211,18.9492 49.793,18.7305 49.4922,18.457 49.2188,18.1289 v -0.082 c -0.2735,-0.3281 -0.4922,-0.6973 -0.6563,-1.1074 -0.1641,-0.4102 -0.2461,-0.834 -0.2461,-1.2715 0,-0.9297 0.2871,-1.75 0.8613,-2.461 0.5743,-0.7109 1.2715,-1.1758 2.0918,-1.3945 h 0.0821 c 0.2187,-0.0547 0.4238,-0.1777 0.6152,-0.3691 0.1914,-0.1914 0.2871,-0.4239 0.2871,-0.6973 L 52.3359,10.5 c 0,-0.0547 0,-0.1094 0,-0.1641 0,-0.0547 0,-0.082 0,-0.082 0.2735,-0.92968 0.7383,-1.72265 1.3946,-2.3789 0.6562,-0.65625 1.4492,-1.09375 2.3789,-1.3125 0,0.16406 -0.0137,0.36914 -0.041,0.61523 -0.0274,0.2461 -0.0411,0.47852 -0.0411,0.69727 0,0.71094 0.0957,1.4082 0.2872,2.0918 0.1914,0.6836 0.4511,1.2988 0.7793,1.8457 0.1093,0.2187 0.2597,0.3828 0.4511,0.4922 0.1914,0.1094 0.3965,0.1641 0.6153,0.1641 0.3828,0 0.6972,-0.1231 0.9433,-0.3692 0.2461,-0.2461 0.3692,-0.5605 0.3692,-0.9434 0,-0.1093 -0.0137,-0.2187 -0.0411,-0.3281 C 59.4043,10.7188 59.3633,10.6094 59.3086,10.5 59.0898,10.1172 58.9258,9.70703 58.8164,9.26953 58.707,8.83203 58.6523,8.36719 58.6523,7.875 c 0,-0.38281 0.0411,-0.76562 0.1231,-1.14844 0.082,-0.38281 0.2051,-0.76562 0.3691,-1.14844 0.4375,-0.875 1.0801,-1.58593 1.9278,-2.13281 0.8476,-0.54687 1.791,-0.82031 2.83,-0.82031 1.4219,0 2.6524,0.50586 3.6915,1.51758 1.039,1.01172 1.5585,2.25586 1.5585,3.73242 0,0.05469 -0.0136,0.12305 -0.041,0.20508 -0.0273,0.08203 -0.041,0.17773 -0.041,0.28711 V 8.28516 c 0,0.05468 0,0.08203 0,0.08203 0,0.38281 0.1367,0.69726 0.4102,0.94336 0.2734,0.24609 0.5742,0.36914 0.9023,0.36914 0.3281,0 0.6152,-0.10938 0.8613,-0.32813 0.2461,-0.21875 0.3965,-0.49218 0.4512,-0.82031 0,-0.10937 0.0137,-0.21875 0.041,-0.32813 0.0274,-0.10937 0.041,-0.21874 0.041,-0.32812 0,-2.1875 -0.7793,-4.04688 -2.3378,-5.57812 C 67.8809,0.765625 66.0352,0 63.9023,0 62.4805,0 61.1816,0.341797 60.0059,1.02539 58.8301,1.70898 57.8867,2.59766 57.1758,3.69141 55.4258,3.74609 53.8809,4.32031 52.541,5.41406 51.2012,6.50781 50.3125,7.875 49.875,9.51562 v 0.08204 c -1.2578,0.49214 -2.2559,1.27144 -2.9941,2.33784 -0.7383,1.0665 -1.1075,2.2833 -1.1075,3.6504 0,0.6016 0.0684,1.1621 0.2051,1.6817 0.1367,0.5195 0.3145,1.0254 0.5332,1.5176 v -0.0821 c -0.1094,0.1641 -0.2324,0.3418 -0.3691,0.5332 -0.1367,0.1914 -0.2324,0.3692 -0.2871,0.5332 l -0.0821,0.0821 -1.0664,-2.3789 c -0.4375,-0.9297 -1.039,-1.7364 -1.8047,-2.42 -0.7656,-0.6836 -1.6406,-1.1621 -2.625,-1.4355 l -0.082,-0.082 c -0.1094,-0.0547 -0.2598,-0.0957 -0.4512,-0.1231 -0.1914,-0.0273 -0.3691,-0.041 -0.5332,-0.041 l -0.082,-0.082 -0.4101,-6.97269 c 0,-0.32813 -0.1368,-0.61524 -0.4102,-0.86133 -0.2734,-0.2461 -0.5742,-0.36914 -0.9024,-0.36914 -0.3828,0 -0.6972,0.12304 -0.9433,0.36914 -0.2461,0.24609 -0.3691,0.56054 -0.3691,0.94336 0,0 0,0.01367 0,0.04101 0,0.02735 0,0.04102 0,0.04102 l 0.4101,6.89063 c -0.2187,0.0547 -0.4375,0.123 -0.6562,0.2051 -0.2188,0.082 -0.4375,0.1504 -0.6563,0.205 h 0.082 L 33.4688,7.54688 C 33.4141,7.27344 33.2637,7.04102 33.0176,6.84961 32.7715,6.6582 32.5117,6.5625 32.2383,6.5625 c -0.3828,0 -0.6973,0.12305 -0.9434,0.36914 -0.2461,0.24609 -0.3691,0.56055 -0.3691,0.94336 0,0.05469 0,0.10938 0,0.16406 0,0.05469 0,0.13672 0,0.2461 V 8.20312 l 0.082,0.16407 -0.164,-0.08203 C 30.7344,8.17578 30.5977,8.08008 30.4336,7.99805 30.2695,7.91602 30.1055,7.875 29.9414,7.875 c -0.1641,0 -0.3281,0.02734 -0.4922,0.08203 -0.164,0.05469 -0.3008,0.16406 -0.4101,0.32813 V 8.20312 l -3.9375,3.77348 c -0.1094,0.164 -0.2051,0.3144 -0.2871,0.4511 -0.0821,0.1368 -0.1231,0.3145 -0.1231,0.5332 0,0.2188 0.0547,0.4239 0.1641,0.6153 0.1093,0.1914 0.2734,0.3418 0.4922,0.4511 l 5.8242,3.8555 c -0.0547,0.1641 -0.1094,0.3281 -0.1641,0.4922 -0.0547,0.1641 -0.1094,0.3555 -0.164,0.5742 -0.0547,0.2735 -0.0958,0.5469 -0.1231,0.8203 -0.0273,0.2735 -0.041,0.5469 -0.041,0.8203 0,0.1094 0,0.2188 0,0.3282 0,0.1093 0,0.2187 0,0.3281 -0.9844,0.1641 -1.9141,0.4512 -2.7891,0.8613 -0.875,0.4102 -1.6953,0.916 -2.4609,1.5176 l -0.9024,-0.9023 c -0.1093,-0.1094 -0.2461,-0.2051 -0.4101,-0.2872 -0.1641,-0.082 -0.3281,-0.123 -0.4922,-0.123 -0.3281,0 -0.6289,0.1367 -0.9023,0.4102 -0.2735,0.2734 -0.4102,0.5742 -0.4102,0.9023 0,0.1641 0.041,0.3281 0.123,0.4922 0.0821,0.164 0.1778,0.3008 0.2872,0.4101 l 0.082,0.0821 c -1.0938,0.2734 -2.0371,0.7656 -2.8301,1.4765 -0.793,0.711 -1.3808,1.586 -1.7637,2.625 h -0.082 l -0.082,0.4102 -3.1992,-1.0664 C 14.793,28 14.7383,27.9727 14.6836,27.9727 c -0.0547,0 -0.1367,0 -0.2461,0 -0.3828,0 -0.6973,0.123 -0.9434,0.3691 -0.2461,0.2461 -0.3691,0.5605 -0.3691,0.9434 0,0.2734 0.082,0.5195 0.2461,0.7382 0.1641,0.2188 0.3828,0.3828 0.6562,0.4922 l 26.4141,9.1055 c 0.2188,0.1094 0.4102,0.2734 0.5742,0.4922 0.1641,0.2187 0.2461,0.4922 0.2461,0.8203 0,0.3281 -0.123,0.6289 -0.3691,0.9023 -0.2461,0.2735 -0.5606,0.4102 -0.9434,0.4102 -0.0547,0 -0.123,-0.0137 -0.2051,-0.041 -0.082,-0.0274 -0.1503,-0.041 -0.205,-0.041 L 4.83984,30.1055 C 4.56641,29.9961 4.34766,29.832 4.18359,29.6133 4.01953,29.3945 3.9375,29.1484 3.9375,28.875 c 0,-0.2734 0.06836,-0.5059 0.20508,-0.6973 0.13672,-0.1914 0.31445,-0.3418 0.5332,-0.4511 0.10938,-0.0547 0.20508,-0.0957 0.28711,-0.1231 0.08203,-0.0273 0.17773,-0.041 0.28711,-0.041 0.05469,0 0.12305,0 0.20508,0 0.08203,0 0.15039,0.0273 0.20508,0.082 l 3.36328,1.1485 c 0.10937,0.0547 0.20508,0.082 0.28711,0.082 0.08203,0 0.15039,0 0.20507,0 0.38282,0 0.69728,-0.123 0.94338,-0.3691 0.2461,-0.2461 0.3691,-0.5606 0.3691,-0.9434 0,-0.2734 -0.082,-0.5195 -0.2461,-0.7383 C 10.418,26.6055 10.1992,26.4414 9.92578,26.332 L 6.5625,25.1836 C 6.34375,25.0742 6.125,25.0059 5.90625,24.9785 5.6875,24.9512 5.44141,24.9375 5.16797,24.9375 c -1.03906,0 -1.95508,0.3828 -2.74805,1.1484 -0.79297,0.7657 -1.18945,1.6953 -1.18945,2.7891 0,0.875 0.25976,1.6406 0.7793,2.2969 0.51953,0.6562 1.16211,1.1211 1.92773,1.3945 L 8.36719,34.125 H 3.9375 c -1.09375,0 -2.02344,0.3828 -2.78906,1.1484 C 0.382813,36.0391 0,36.9688 0,38.0625 0,39.1562 0.382813,40.0859 1.14844,40.8516 1.91406,41.6172 2.84375,42 3.9375,42 h 27.1523 l 7.629,2.625 c 0.164,0.0547 0.3554,0.1094 0.5742,0.1641 0.2187,0.0547 0.4648,0.082 0.7382,0.082 1.0938,0 2.0235,-0.3828 2.7891,-1.1484 0.7656,-0.7657 1.1485,-1.6954 1.1485,-2.7891 0,-0.875 -0.2598,-1.6543 -0.7793,-2.3379 -0.5196,-0.6836 -1.1622,-1.1621 -1.9278,-1.4355 L 40.0312,36.75 h 34.7813 c 0.3828,0 0.6973,0.123 0.9434,0.3691 0.2461,0.2461 0.3691,0.5606 0.3691,0.9434 0,0.3828 -0.123,0.6973 -0.3691,0.9434 -0.2461,0.2461 -0.5606,0.3691 -0.9434,0.3691 H 47.8242 c -0.3281,0 -0.6289,0.123 -0.9023,0.3691 -0.2735,0.2461 -0.4102,0.5606 -0.4102,0.9434 0,0.3828 0.1367,0.6973 0.4102,0.9434 C 47.1953,41.877 47.4961,42 47.8242,42 h 22.8867 l -0.8203,5.6602 c -0.3828,0.164 -0.7383,0.3554 -1.0664,0.5742 -0.3281,0.2187 -0.6289,0.4375 -0.9023,0.6562 v -0.164 c 0,-0.1094 0,-0.1914 0,-0.2461 0,-0.0547 0,-0.1367 0,-0.2461 0,-0.4375 -0.0821,-0.8614 -0.2461,-1.2715 -0.1641,-0.4102 -0.3828,-0.7793 -0.6563,-1.1074 -0.3281,-0.3828 -0.7246,-0.67 -1.1894,-0.8614 -0.4649,-0.1914 -0.9707,-0.2871 -1.5176,-0.2871 -0.5469,0 -1.0527,0.0957 -1.5176,0.2871 -0.4648,0.1914 -0.8613,0.4786 -1.1894,0.8614 -0.2735,0.3281 -0.4922,0.6972 -0.6563,1.1074 -0.164,0.4101 -0.2461,0.834 -0.2461,1.2715 0,0.1094 0,0.2051 0,0.2871 0,0.082 0,0.1504 0,0.2051 l 0.4922,3.8554 C 61.0312,52.5273 60.8809,52.5 60.7441,52.5 c -0.1367,0 -0.2597,0 -0.3691,0 -1.2578,0 -2.4473,0.2051 -3.5684,0.6152 -1.1211,0.4102 -2.1191,0.9707 -2.9941,1.6817 v -0.9844 c 0,-1.0937 -0.3828,-2.0234 -1.1484,-2.7891 -0.7657,-0.7656 -1.6953,-1.1484 -2.7891,-1.1484 -1.0938,0 -2.0234,0.3828 -2.7891,1.1484 -0.7656,0.7657 -1.1484,1.6954 -1.1484,2.7891 v 15.75 c 0,1.0937 0.3828,2.0234 1.1484,2.7891 0.7657,0.7656 1.6953,1.1484 2.7891,1.1484 0.4922,0 0.9707,-0.0957 1.4355,-0.2871 0.4649,-0.1914 0.8887,-0.4512 1.2715,-0.7793 0.3282,0.7109 0.711,1.3672 1.1485,1.9687 0.4375,0.6016 0.9023,1.1758 1.3945,1.7227 H 26.25 c -0.3828,0 -0.6973,0.123 -0.9434,0.3691 -0.2461,0.2461 -0.3691,0.5606 -0.3691,0.9434 0,0.3828 0.123,0.6973 0.3691,0.9434 0.2461,0.2461 0.5606,0.3691 0.9434,0.3691 h 33.8789 c 0,0 0.0273,0 0.082,0 0.0547,0 0.0957,0 0.1231,0 0.0273,0 0.041,0 0.041,0 0.7109,0 1.4082,-0.0684 2.0918,-0.2051 0.6836,-0.1367 1.3262,-0.3418 1.9277,-0.6152 l -0.082,0.082 c 0.6016,0.2188 1.2305,0.3965 1.8867,0.5332 0.6563,0.1367 1.3399,0.2051 2.0508,0.2051 1.2031,0 2.3652,-0.3828 3.4863,-1.1484 1.1211,-0.7657 2.1739,-1.8594 3.1582,-3.2813 0.1094,-0.1094 0.1778,-0.2324 0.2051,-0.3691 0.0274,-0.1367 0.041,-0.2598 0.041,-0.3692 0,-0.3828 -0.123,-0.6972 -0.3691,-0.9433 -0.2461,-0.2461 -0.5606,-0.3692 -0.9434,-0.3692 -0.2187,0 -0.4238,0.041 -0.6152,0.1231 -0.1914,0.082 -0.3418,0.2324 -0.4512,0.4512 -0.7109,1.039 -1.4629,1.8457 -2.2558,2.4199 -0.793,0.5742 -1.545,0.8613 -2.2559,0.8613 -0.6016,0 -1.1895,-0.0684 -1.7637,-0.2051 -0.5742,-0.1367 -1.1347,-0.3418 -1.6816,-0.6152 l 0.082,0.082 c -0.1094,-0.0547 -0.2051,-0.0957 -0.2871,-0.123 -0.082,-0.0274 -0.1777,-0.041 -0.2871,-0.041 -0.1094,0 -0.2051,0.0136 -0.2871,0.041 -0.082,0.0273 -0.1777,0.0683 -0.2871,0.123 -0.4922,0.2188 -1.0254,0.3965 -1.5996,0.5332 -0.5742,0.1367 -1.1621,0.2051 -1.7637,0.2051 0,0 -0.0137,0 -0.041,0 -0.0274,0 -0.041,0 -0.041,0 C 58.3242,76.0703 56.5332,74.4707 54.9199,71.3262 53.3066,68.1816 52.5,65.4062 52.5,63 c 0,-2.1875 0.7656,-4.0469 2.2969,-5.5781 1.5312,-1.5313 3.3906,-2.2969 5.5781,-2.2969 0.2188,0 0.4238,0.0137 0.6152,0.041 0.1914,0.0274 0.3965,0.041 0.6153,0.041 h -0.0821 v 0.0821 c 0.1094,0.7109 0.4239,1.2988 0.9434,1.7636 0.5195,0.4649 1.1348,0.6973 1.8457,0.6973 0.7109,0 1.3262,-0.2324 1.8457,-0.6973 0.5195,-0.4648 0.834,-1.0527 0.9434,-1.7636 V 55.207 c 0.164,0 0.3418,-0.0136 0.5332,-0.041 0.1914,-0.0273 0.3964,-0.041 0.6152,-0.041 2.1875,0 4.0469,0.7656 5.5781,2.2969 1.5313,1.5312 2.2969,3.3906 2.2969,5.5781 -0.0547,0.9844 -0.1777,1.9414 -0.3691,2.8711 -0.1914,0.9297 -0.4512,1.8047 -0.7793,2.625 v -0.082 c 0,0.0547 -0.0137,0.123 -0.0411,0.205 -0.0273,0.0821 -0.041,0.1778 -0.041,0.2871 0,0.3829 0.1231,0.6973 0.3692,0.9434 0.2461,0.2461 0.5605,0.3692 0.9433,0.3692 0.2735,0 0.5332,-0.0821 0.7793,-0.2461 0.2461,-0.1641 0.3965,-0.3829 0.4512,-0.6563 0.3828,-0.9297 0.6836,-1.9277 0.9023,-2.9941 0.2188,-1.0664 0.3555,-2.1739 0.4102,-3.3223 0,-1.9688 -0.4922,-3.7598 -1.4766,-5.373 -0.9843,-1.6133 -2.2695,-2.8575 -3.8554,-3.7325 z M 3.9375,39.375 C 3.55469,39.375 3.24023,39.252 2.99414,39.0059 2.74805,38.7598 2.625,38.4453 2.625,38.0625 2.625,37.6797 2.74805,37.3652 2.99414,37.1191 3.24023,36.873 3.55469,36.75 3.9375,36.75 h 12.0586 l 7.5469,2.625 z M 73.5,22.7227 c 0,-0.1094 0.0137,-0.2188 0.041,-0.3282 0.0274,-0.1093 0.0684,-0.2187 0.1231,-0.3281 v -0.082 c 0.3281,-0.1641 0.6289,-0.3418 0.9023,-0.5332 0.2734,-0.1914 0.5469,-0.3965 0.8203,-0.6153 0.2188,0.2188 0.3965,0.4922 0.5332,0.8203 0.1367,0.3282 0.2051,0.6836 0.2051,1.0665 0,0.5468 -0.1777,1.0527 -0.5332,1.5175 -0.3555,0.4649 -0.7793,0.7793 -1.2715,0.9434 h -0.082 c -0.2735,0.1094 -0.4922,0.2734 -0.6563,0.4922 -0.164,0.2187 -0.2461,0.4648 -0.2461,0.7383 0,0.0547 0,0.1093 0,0.164 0,0.0547 0.0274,0.1094 0.0821,0.1641 0,0.1094 0.0136,0.2187 0.041,0.3281 0.0273,0.1094 0.041,0.2461 0.041,0.4102 0,0.1093 -0.0137,0.2187 -0.041,0.3281 -0.0274,0.1094 -0.041,0.2187 -0.041,0.3281 v -0.082 c -0.1641,0.6015 -0.4785,1.0801 -0.9434,1.4355 -0.4648,0.3555 -0.998,0.5332 -1.5996,0.5332 -0.1094,0 -0.2324,0 -0.3691,0 -0.1368,0 -0.2598,-0.0273 -0.3692,-0.082 h 0.0821 c -0.2735,-0.0547 -0.5333,-0.1641 -0.7793,-0.3281 -0.2461,-0.1641 -0.4512,-0.3555 -0.6153,-0.5742 l 0.9024,-2.0508 c 0.164,-0.0547 0.3007,-0.1094 0.4101,-0.1641 0.1094,-0.0547 0.2188,-0.1094 0.3281,-0.164 0.711,-0.4375 1.3399,-0.9981 1.8868,-1.6817 0.5468,-0.6836 0.9296,-1.4355 1.1484,-2.2558 z m -6.8086,4.7578 -2.9531,6.6445 h -8.2852 l 0.3281,-1.1484 c 0,0 0.0137,-0.0411 0.0411,-0.1231 0.0273,-0.082 0.041,-0.1504 0.041,-0.2051 0,0 -0.0137,-0.0273 -0.041,-0.082 -0.0274,-0.0547 -0.0411,-0.1094 -0.0411,-0.1641 L 53.7305,22.0664 c 0.164,-0.0547 0.3418,-0.1094 0.5332,-0.1641 0.1914,-0.0546 0.3691,-0.1367 0.5332,-0.2461 l -0.0821,0.0821 c 0.3829,0.4375 0.793,0.8203 1.2305,1.1484 0.4375,0.3281 0.9024,0.6016 1.3945,0.8203 h 0.0821 l 1.5586,7.9571 c 0.0547,0.2734 0.1914,0.5058 0.4101,0.6972 0.2188,0.1914 0.4649,0.2871 0.7383,0.2871 0.0547,0 0.082,0 0.082,0 0,0 0.0274,0 0.0821,0 0.2734,0 0.5195,-0.0683 0.7382,-0.205 0.2188,-0.1368 0.3555,-0.3145 0.4102,-0.5332 h 0.082 l 2.461,-5.25 c 0.3828,0.2734 0.7929,0.4785 1.2304,0.6152 0.4375,0.1367 0.9024,0.2051 1.3946,0.2051 z m -5.332,-3.4453 c 0.1094,0.164 0.2051,0.3144 0.2871,0.4511 0.082,0.1367 0.1777,0.2598 0.2871,0.3692 l -1.1484,2.3789 -0.5743,-3.0352 c 0.2188,0 0.4239,-0.0137 0.6153,-0.041 0.1914,-0.0273 0.3965,-0.0684 0.6152,-0.123 z m -10.336,-1.9688 0.4922,2.3789 c -0.164,0.0547 -0.3281,0.0957 -0.4922,0.1231 -0.164,0.0273 -0.3281,0.041 -0.4922,0.041 -0.1093,0 -0.2187,-0.0137 -0.3281,-0.041 -0.1093,-0.0274 -0.2187,-0.0411 -0.3281,-0.0411 -0.5469,-0.164 -0.998,-0.4785 -1.3535,-0.9433 -0.3555,-0.4649 -0.5332,-0.9981 -0.5332,-1.5996 0,-0.1094 0,-0.2324 0,-0.3692 0,-0.1367 0.0273,-0.2597 0.082,-0.3691 v 0.082 c 0,-0.1093 0.0274,-0.2051 0.082,-0.2871 0.0547,-0.082 0.0821,-0.1504 0.0821,-0.2051 0.3281,0.2735 0.6836,0.5059 1.0664,0.6973 0.3828,0.1914 0.793,0.3418 1.2304,0.4512 h 0.0821 c 0.0547,0 0.123,0.0136 0.2051,0.041 0.082,0.0273 0.1504,0.041 0.205,0.041 z m -1.8046,5.0039 c 0.2187,0.0547 0.4374,0.0957 0.6562,0.1231 0.2188,0.0273 0.4648,0.041 0.7383,0.041 0.2187,0 0.4648,-0.0274 0.7383,-0.0821 0.2734,-0.0546 0.5195,-0.1093 0.7382,-0.164 h -0.082 l 1.1484,5.6601 -0.4101,1.4766 H 52.5 Z m 0.4101,7.0547 h -2.625 c 0.0547,0 0.1094,-0.0137 0.1641,-0.041 0.0547,-0.0274 0.1093,-0.041 0.164,-0.041 l 1.8047,-1.0664 z m -9.0234,-17.4727 -1.3946,0.8204 c -0.164,0.1093 -0.3144,0.2597 -0.4511,0.4511 -0.1368,0.1914 -0.2051,0.4239 -0.2051,0.6973 0,0.3281 0.1367,0.6289 0.4101,0.9023 0.2735,0.2735 0.5743,0.4102 0.9024,0.4102 0.164,0 0.3008,-0.0274 0.4101,-0.082 0.1094,-0.0547 0.2188,-0.1094 0.3282,-0.1641 h -0.0821 l 1.8047,-0.9844 1.7227,3.5274 -1.5586,0.9023 c -0.1641,0.1094 -0.3145,0.2598 -0.4512,0.4512 -0.1367,0.1914 -0.2051,0.4238 -0.2051,0.6972 0,0.3282 0.1368,0.629 0.4102,0.9024 0.2734,0.2734 0.5742,0.4102 0.9023,0.4102 0.1641,0 0.3008,-0.0137 0.4102,-0.0411 0.1094,-0.0273 0.2187,-0.0683 0.3281,-0.123 h -0.082 l 1.3945,-0.8203 2.7891,5.9883 -1.9688,1.1484 c -0.2187,0.1094 -0.3828,0.2598 -0.4922,0.4512 -0.1093,0.1914 -0.164,0.4238 -0.164,0.6972 0,0.2735 0.082,0.5196 0.2461,0.7383 0.164,0.2188 0.3828,0.3828 0.6562,0.4922 h -4.5937 l -1.4766,-2.0508 3.3633,-1.9687 c 0.1641,-0.1094 0.3144,-0.2598 0.4512,-0.4512 0.1367,-0.1914 0.205,-0.4238 0.205,-0.6973 0,-0.3281 -0.1367,-0.6289 -0.4101,-0.9023 -0.2735,-0.2735 -0.5742,-0.4102 -0.9024,-0.4102 -0.1093,0 -0.2324,0.0137 -0.3691,0.041 -0.1367,0.0274 -0.2324,0.0957 -0.2871,0.2051 v -0.082 l -3.5273,2.0508 -2.2149,-3.1992 2.625,-1.5586 c 0.1641,-0.1094 0.3145,-0.2598 0.4512,-0.4512 0.1367,-0.1914 0.2051,-0.4238 0.2051,-0.6973 0,-0.3281 -0.1368,-0.6289 -0.4102,-0.9023 -0.2734,-0.2735 -0.5742,-0.4102 -0.9023,-0.4102 -0.1094,0 -0.2188,0.0137 -0.3282,0.041 -0.1093,0.0274 -0.2187,0.0684 -0.3281,0.1231 l -2.8711,1.6406 -0.8203,-1.1484 c -0.2734,-0.3828 -0.4785,-0.8067 -0.6152,-1.2715 -0.1368,-0.4649 -0.2051,-0.9434 -0.2051,-1.4356 0,-1.3125 0.4648,-2.4336 1.3945,-3.3632 0.9297,-0.9297 2.0235,-1.3946 3.2813,-1.3946 0.2734,0 0.5332,0.0274 0.7793,0.0821 0.2461,0.0547 0.4785,0.1093 0.6972,0.164 0.2188,0.0547 0.4239,0.1367 0.6153,0.2461 0.1914,0.1094 0.3691,0.2188 0.5332,0.3281 z m -12.4688,-3.8554 1.7227,-1.7227 2.625,2.707 0.4922,1.4766 c -0.0547,0.0547 -0.1231,0.1231 -0.2051,0.2051 -0.082,0.082 -0.1504,0.1504 -0.2051,0.2051 z m -7.5469,16.8164 c 0.3282,-0.711 0.8204,-1.3125 1.4766,-1.8047 0.6563,-0.4922 1.3945,-0.7383 2.2148,-0.7383 0.0547,0 0.0821,0 0.0821,0 l -0.3281,1.0664 c -0.2188,0.4922 -0.5332,0.9434 -0.9434,1.3535 -0.4102,0.4102 -0.8887,0.6973 -1.4356,0.8614 L 20.5078,30.0234 Z M 24.8555,31.5 c 0.3281,-0.3281 0.6289,-0.6973 0.9023,-1.1074 0.2734,-0.4102 0.4922,-0.8614 0.6563,-1.3535 h 0.082 l 0.1641,-0.5743 c 0.1093,0.1094 0.2324,0.1914 0.3691,0.2461 0.1367,0.0547 0.2871,0.0821 0.4512,0.0821 0.3828,0 0.6972,-0.1231 0.9433,-0.3692 0.2461,-0.2461 0.3692,-0.5605 0.3692,-0.9433 0,-0.1641 -0.0274,-0.3145 -0.0821,-0.4512 -0.0547,-0.1367 -0.1367,-0.2598 -0.2461,-0.3691 l -1.1484,-1.1485 c 0.6016,-0.4375 1.2441,-0.8066 1.9277,-1.1074 0.6836,-0.3008 1.3809,-0.5059 2.0918,-0.6152 h 0.0821 c 0.1093,0.164 0.205,0.3281 0.2871,0.4921 0.082,0.1641 0.1777,0.3282 0.2871,0.4922 l 6.4805,9.3516 h -5.9883 z m 26.332,38.0625 c 0,0.3828 -0.123,0.6973 -0.3691,0.9434 -0.2461,0.2461 -0.5606,0.3691 -0.9434,0.3691 -0.3828,0 -0.6973,-0.123 -0.9434,-0.3691 -0.2461,-0.2461 -0.3691,-0.5606 -0.3691,-0.9434 v -15.75 c 0,-0.3828 0.123,-0.6973 0.3691,-0.9434 C 49.1777,52.623 49.4922,52.5 49.875,52.5 c 0.3828,0 0.6973,0.123 0.9434,0.3691 0.2461,0.2461 0.3691,0.5606 0.3691,0.9434 v 4.1016 C 50.75,58.6797 50.4219,59.4863 50.2031,60.334 49.9844,61.1816 49.875,62.0703 49.875,63 c 0.0547,1.2031 0.2051,2.3652 0.4512,3.4863 0.2461,1.1211 0.5605,2.2012 0.9433,3.2403 v -0.1641 z m 21,-19.6875 h 1.0664 c -0.2734,0.7656 -0.7383,1.3945 -1.3945,1.8867 C 71.2031,52.2539 70.4375,52.5 69.5625,52.5 h -1.0664 c 0.2734,-0.7656 0.7383,-1.3945 1.3945,-1.8867 0.6563,-0.4922 1.4219,-0.7383 2.2969,-0.7383 z m -8.0391,5.0859 -0.8203,-6.5625 c 0,-0.0546 0,-0.082 0,-0.082 0,0 0,-0.0273 0,-0.082 0,-0.2735 0.0957,-0.5059 0.2871,-0.6973 0.1914,-0.1914 0.4239,-0.2871 0.6973,-0.2871 0.2734,0 0.5059,0.0957 0.6973,0.2871 0.1914,0.1914 0.2871,0.4238 0.2871,0.6973 0,0.0547 0,0.082 0,0.082 0,0 0,0.0274 0,0.082 l -0.8203,6.5625 c 0,0.0547 -0.0137,0.0957 -0.0411,0.1231 -0.0273,0.0273 -0.0683,0.041 -0.123,0.041 -0.0547,0 -0.0957,-0.0137 -0.123,-0.041 -0.0274,-0.0274 -0.0411,-0.0684 -0.0411,-0.1231 z m 5.9063,3.0352 C 70,57.9414 69.918,57.9004 69.8086,57.873 c -0.1094,-0.0273 -0.2188,-0.041 -0.3281,-0.041 -0.3828,0 -0.6973,0.1368 -0.9434,0.4102 -0.2461,0.2734 -0.3691,0.5742 -0.3691,0.9023 0,0.2735 0.0683,0.5059 0.205,0.6973 0.1368,0.1914 0.2872,0.3418 0.4512,0.4512 0.4375,0.2187 0.793,0.4922 1.0664,0.8203 0.2735,0.3281 0.4922,0.7109 0.6563,1.1484 0.1093,0.2735 0.2734,0.4922 0.4922,0.6563 0.2187,0.164 0.4648,0.2461 0.7382,0.2461 0.3829,0 0.6973,-0.1231 0.9434,-0.3692 0.2461,-0.2461 0.3691,-0.5605 0.3691,-0.9433 0,-0.1094 0,-0.2051 0,-0.2871 0,-0.0821 -0.0273,-0.1504 -0.082,-0.2051 -0.2734,-0.711 -0.6562,-1.3535 -1.1484,-1.9278 -0.4922,-0.5742 -1.0664,-1.0527 -1.7227,-1.4355 z"
         fill="#ffffff"
         id="path1-1" /></g><g
       style="fill:none"
       id="g12"
       transform="matrix(0.26458333,0,0,0.26458333,63.566014,14.56769)"><path
         d="m 40.918,48.4375 c -0.7162,-0.5208 -1.4812,-0.9766 -2.295,-1.3672 -0.8138,-0.3906 -1.6276,-0.7324 -2.4414,-1.0254 -1.4974,-0.5859 -3.483,-1.1556 -5.957,-1.709 -2.4739,-0.5533 -5.4199,-0.8463 -8.8379,-0.8789 0.0651,-0.4882 0.1709,-1.0579 0.3174,-1.709 0.1465,-0.651 0.3662,-1.3671 0.6592,-2.1484 0.3255,-0.7487 0.6917,-1.4567 1.0986,-2.124 0.4069,-0.6673 0.8708,-1.3102 1.3916,-1.9287 0.2604,0.0976 0.6836,0.2278 1.2695,0.3906 0.586,0.1628 1.3021,0.2441 2.1485,0.2441 0.7487,0 1.5706,-0.1139 2.4658,-0.3418 0.8952,-0.2278 1.8148,-0.6673 2.7588,-1.3183 2.2461,-1.53 3.4993,-3.2227 3.7598,-5.0781 0.2604,-1.8555 0.3906,-2.8483 0.3906,-2.9786 0,-0.1302 -0.0407,-0.2441 -0.1221,-0.3418 -0.0814,-0.0976 -0.1872,-0.179 -0.3174,-0.2441 -0.0325,0 -0.1953,-0.0651 -0.4882,-0.1953 -0.293,-0.1302 -0.6836,-0.2441 -1.1719,-0.3418 0.3906,-0.651 0.7324,-1.3184 1.0254,-2.002 0.2929,-0.6836 0.5371,-1.3997 0.7324,-2.1484 0.1302,-0.4557 -0.0407,-0.7406 -0.5127,-0.8545 -0.472,-0.1139 -0.7731,0.057 -0.9033,0.5127 -0.1953,0.7813 -0.4639,1.53 -0.8057,2.2461 -0.3418,0.7161 -0.7406,1.3997 -1.1963,2.0508 -0.7812,0 -1.6601,0.1139 -2.6367,0.3418 -0.9766,0.2278 -1.9694,0.6999 -2.9785,1.416 -0.7487,0.5208 -1.3753,1.0905 -1.8799,1.709 -0.5046,0.6185 -0.9033,1.237 -1.1963,1.8555 -0.651,0.0651 -1.2451,0.0895 -1.7822,0.0732 -0.5371,-0.0163 -0.9847,-0.0407 -1.3428,-0.0732 0.3581,-0.5209 0.8626,-1.1719 1.5137,-1.9532 0.651,-0.8138 1.4079,-1.6683 2.2705,-2.5635 0.8626,-0.8951 1.7985,-1.7822 2.8076,-2.6611 1.0091,-0.8463 2.0508,-1.595 3.125,-2.2461 0.4232,-0.2278 0.5127,-0.5534 0.2686,-0.9765 -0.2442,-0.4232 -0.5778,-0.5209 -1.001,-0.293 -2.1159,1.237 -4.0446,2.7913 -5.7861,4.6631 -1.7416,1.8717 -3.0518,3.3935 -3.9307,4.5654 -0.0651,-1.1393 0.1058,-2.6204 0.5127,-4.4434 0.4069,-1.8229 1.4567,-3.5644 3.1494,-5.2246 1.0742,-1.1067 2.2624,-1.9775 3.5645,-2.6123 1.302,-0.6347 2.6855,-1.0335 4.1503,-1.1963 0.7813,-0.0651 1.4649,-0.0732 2.0508,-0.0244 0.586,0.0489 1.0417,0.0895 1.3672,0.1221 0.0326,0.1953 0.0651,0.4476 0.0977,0.7568 0.0325,0.3093 0.0488,0.6592 0.0488,1.0498 0,0.4558 0.2441,0.6836 0.7324,0.6836 0.4883,0 0.7324,-0.2441 0.7324,-0.7324 0,-0.7487 -0.0488,-1.3509 -0.1464,-1.8066 -0.0977,-0.4558 -0.1465,-0.6999 -0.1465,-0.7324 -0.0326,-0.1303 -0.0977,-0.2361 -0.1953,-0.3174 -0.0977,-0.0814 -0.1954,-0.1547 -0.293,-0.2198 -0.0651,0 -0.4964,-0.0651 -1.294,-0.1953 -0.7975,-0.1302 -1.8147,-0.1465 -3.0517,-0.0488 -1.1393,0.1302 -2.4902,0.4883 -4.0527,1.0742 -1.5625,0.586 -3.1088,1.6439 -4.6387,3.1738 -0.1302,0.1303 -0.2523,0.2523 -0.3662,0.3663 -0.114,0.1139 -0.2198,0.236 -0.3174,0.3662 0.1953,-0.6185 0.4069,-1.2696 0.6348,-1.9532 0.2278,-0.6836 0.4557,-1.3671 0.6835,-2.0507 0.6511,-0.1953 1.6358,-0.708 2.9541,-1.5381 1.3184,-0.8301 2.3357,-2.2705 3.0518,-4.32131 0.8789,-2.57162 0.8789,-4.67937 0,-6.32324 C 29.6875,1.21257 29.2155,0.341797 29.1504,0.244141 29.0527,0.146484 28.9469,0.0813789 28.833,0.0488281 28.7191,0.0162773 28.597,0 28.4668,0 c -0.0977,0.0325508 -1.001,0.415039 -2.71,1.14746 -1.7089,0.73242 -3.0192,2.40072 -3.9306,5.00488 -0.7487,2.14844 -0.8057,4.00386 -0.1709,5.56646 0.6347,1.5624 1.1149,2.5553 1.4404,2.9785 -0.1953,0.651 -0.3988,1.2939 -0.6103,1.9287 -0.2116,0.6347 -0.4151,1.2451 -0.6104,1.831 C 21.7448,17.4805 21.46,16.4225 21.0205,15.2832 20.5811,14.1439 19.9219,13.0208 19.043,11.9141 17.7083,10.2214 16.3005,8.99251 14.8193,8.22754 13.3382,7.46257 12.0443,6.94987 10.9375,6.68945 9.70052,6.42904 8.68327,6.32324 7.88574,6.37207 7.08822,6.4209 6.67318,6.44531 6.64062,6.44531 6.51042,6.47786 6.38835,6.53483 6.27441,6.61621 6.16048,6.69759 6.08724,6.78711 6.05469,6.88477 c 0,0.03255 -0.08952,0.34179 -0.26856,0.92773 -0.17903,0.58594 -0.31738,1.35091 -0.41504,2.2949 -0.03255,0.4883 0.19532,0.7487 0.6836,0.7813 0.48828,0.0325 0.7487,-0.1791 0.78125,-0.6348 C 6.86849,9.70052 6.93359,9.22038 7.03125,8.81348 7.12891,8.40657 7.21029,8.08919 7.27539,7.86133 c 0.32552,-0.03255 0.78125,-0.03255 1.36719,0 0.58594,0.03255 1.25325,0.13021 2.00192,0.29297 1.4649,0.32552 2.7995,0.8789 4.0039,1.66015 1.2045,0.78125 2.295,1.79035 3.2715,3.02735 0.8789,1.1393 1.5462,2.3763 2.002,3.7109 0.4557,1.3347 0.6673,2.7507 0.6347,4.2481 0,0.4883 -0.0244,0.9359 -0.0732,1.3428 -0.0488,0.4069 -0.1058,0.7731 -0.1709,1.0986 -1.4323,-2.7018 -2.9622,-4.9723 -4.5898,-6.8115 -1.6276,-1.8392 -2.4903,-2.8077 -2.5879,-2.9053 -0.3256,-0.3255 -0.6592,-0.3174 -1.001,0.0244 -0.3418,0.3418 -0.3499,0.6755 -0.0244,1.001 0,0.0325 0.8301,0.9847 2.4902,2.8564 1.6602,1.8718 3.1901,4.1423 4.5899,6.8116 -0.3256,0 -0.6999,-0.0245 -1.1231,-0.0733 C 17.6432,24.0967 17.1875,24.0234 16.6992,23.9258 15.2669,23.6003 13.9567,23.0632 12.7686,22.3145 11.5804,21.5658 10.5143,20.5892 9.57031,19.3848 8.91927,18.571 8.38216,17.7083 7.95898,16.7969 7.53581,15.8854 7.22656,14.9414 7.03125,13.9648 6.93359,13.4766 6.64876,13.2812 6.17676,13.3789 c -0.47201,0.0977 -0.65918,0.3906 -0.56153,0.8789 0.22787,1.0742 0.5778,2.124 1.04981,3.1494 0.472,1.0254 1.06608,1.9938 1.78223,2.9053 1.30208,1.6602 2.68553,2.8564 4.15043,3.5889 1.4648,0.7324 2.7506,1.2288 3.8574,1.4892 0.5534,0.0977 1.1149,0.1791 1.6845,0.2442 0.5697,0.0651 1.1475,0.0813 1.7334,0.0488 v 12.3535 c -0.1302,-0.2604 -0.2522,-0.5045 -0.3662,-0.7324 -0.1139,-0.2279 -0.236,-0.4395 -0.3662,-0.6348 0.0326,-0.4232 -0.0814,-1.6764 -0.3418,-3.7597 -0.2604,-2.0834 -1.5625,-4.0528 -3.9062,-5.9082 -2.5391,-2.0183 -4.90725,-2.8484 -7.10451,-2.4903 -2.19727,0.3581 -3.36101,0.5534 -3.49121,0.586 -0.09766,0.0651 -0.18718,0.1464 -0.26856,0.2441 -0.08138,0.0977 -0.13835,0.2116 -0.1709,0.3418 -0.03255,0.0976 0.04069,1.2614 0.21973,3.4912 0.17904,2.2298 1.55436,4.3538 4.12597,6.3721 1.17188,0.944 2.36008,1.5788 3.56448,1.9043 1.2044,0.3255 2.2949,0.4883 3.2715,0.4883 0.6185,0 1.1881,-0.0407 1.7089,-0.1221 0.5209,-0.0814 0.9278,-0.1709 1.2208,-0.2686 0.5208,0.9115 0.9358,1.8555 1.2451,2.8321 0.3092,0.9765 0.4964,2.0019 0.5615,3.0761 -1.888,0.0326 -3.7109,0.1547 -5.4688,0.3662 -1.7578,0.2116 -3.4342,0.5127 -5.02926,0.9034 -0.45573,0.1302 -0.62662,0.4313 -0.51269,0.9033 0.11393,0.472 0.39876,0.6592 0.85449,0.5615 1.56246,-0.3906 3.19826,-0.6917 4.90726,-0.9033 1.709,-0.2116 3.4912,-0.3337 5.3466,-0.3662 v 1.6601 c 0,0.4883 0.2442,0.7325 0.7325,0.7325 0.4883,0 0.7324,-0.2442 0.7324,-0.7325 v -1.6601 c 2.1484,0 4.1016,0.1302 5.8594,0.3906 1.7903,0.2604 3.3854,0.5697 4.7851,0.9277 1.3998,0.3581 2.6205,0.7325 3.6621,1.1231 1.0417,0.4232 1.9043,0.8138 2.5879,1.1719 H 3.22266 c 0.35807,-0.1954 0.76497,-0.3988 1.2207,-0.6104 0.45573,-0.2116 0.97656,-0.415 1.5625,-0.6103 C 6.42904,47.1517 6.55924,46.8424 6.39648,46.3867 6.23372,45.931 5.92448,45.7845 5.46875,45.9473 4.55729,46.2728 3.77604,46.6064 3.125,46.9482 2.47396,47.29 1.95312,47.5749 1.5625,47.8027 0.78125,48.2585 0.325521,48.584 0.195312,48.7793 0.0651042,48.9746 0,49.1374 0,49.2676 0,49.4629 0.0732422,49.6338 0.219727,49.7803 0.366211,49.9268 0.537109,50 0.732422,50 H 40.7715 c 0.5859,0 0.8219,-0.2116 0.708,-0.6348 -0.1139,-0.4231 -0.3011,-0.7324 -0.5615,-0.9277 z M 29.1016,28.125 c 1.5299,-1.0742 2.9622,-1.5706 4.2968,-1.4893 1.3347,0.0814 2.2624,0.2198 2.7832,0.4151 -0.0325,0.5534 -0.2441,1.473 -0.6347,2.7588 -0.3907,1.2858 -1.3509,2.4495 -2.8809,3.4912 -1.3672,0.9765 -2.6693,1.4485 -3.9062,1.416 -1.237,-0.0326 -2.1647,-0.1465 -2.7832,-0.3418 0.7161,-0.651 1.5136,-1.2614 2.3925,-1.8311 0.8789,-0.5696 1.8392,-1.066 2.8809,-1.4892 0.4232,-0.1953 0.5371,-0.5208 0.3418,-0.9766 -0.1953,-0.4557 -0.5046,-0.5859 -0.9277,-0.3906 -0.944,0.3906 -1.7985,0.8219 -2.5635,1.2939 -0.765,0.4721 -1.4567,0.9685 -2.0752,1.4893 0.1628,-0.6836 0.4801,-1.4242 0.9521,-2.2217 0.472,-0.7975 1.1801,-1.5055 2.1241,-2.124 z m -5.5176,3.9062 c 0.1627,0 0.3336,-0.0081 0.5127,-0.0244 0.179,-0.0162 0.3499,-0.0244 0.5127,-0.0244 -0.1302,0.4232 -0.2198,0.8138 -0.2686,1.1719 -0.0488,0.3581 -0.0732,0.6673 -0.0732,0.9277 -0.7162,0.7162 -1.3102,1.4486 -1.7822,2.1973 -0.4721,0.7487 -0.8545,1.4648 -1.1475,2.1484 v -6.5918 c 0.2279,0.0326 0.5371,0.0733 0.9277,0.1221 0.3906,0.0488 0.8301,0.0732 1.3184,0.0732 z M 23.1934,6.64062 c 0.6184,-1.79036 1.4892,-3.04362 2.6123,-3.75976 1.123,-0.71615 1.945,-1.1556 2.4658,-1.31836 0.3255,0.45573 0.708,1.31836 1.1474,2.58789 0.4395,1.26953 0.35,2.7832 -0.2685,4.54102 -0.4557,1.33459 -1.0742,2.35189 -1.8555,3.05179 -0.7812,0.6998 -1.4974,1.1963 -2.1484,1.4892 0.4883,-1.3997 0.9521,-2.7262 1.3916,-3.97947 0.4394,-1.25325 0.8382,-2.30306 1.1963,-3.14941 0.1627,-0.42318 0.0163,-0.73243 -0.4395,-0.92774 -0.4557,-0.19531 -0.765,-0.0651 -0.9277,0.39063 -0.3581,0.84635 -0.765,1.92057 -1.2207,3.22265 -0.4557,1.30204 -0.9277,2.68554 -1.416,4.15044 -0.3581,-0.6511 -0.6511,-1.5219 -0.8789,-2.6124 -0.2279,-1.09045 -0.114,-2.31929 0.3418,-3.68648 z M 9.08203,34.4238 C 8.17057,33.6751 7.41374,32.8369 6.81152,31.9092 6.20931,30.9814 5.77799,29.9642 5.51758,28.8574 5.38737,28.304 5.31413,27.8076 5.29785,27.3682 5.28158,26.9287 5.27344,26.5788 5.27344,26.3184 c 0.61849,-0.1628 1.77409,-0.2605 3.46679,-0.293 1.69267,-0.0326 3.45057,0.6673 5.27347,2.0996 0.9114,0.7161 1.652,1.5381 2.2217,2.4658 0.5696,0.9278 0.9847,1.945 1.2451,3.0518 0.0325,0.1627 0.0651,0.3174 0.0976,0.4638 0.0326,0.1465 0.0489,0.2849 0.0489,0.4151 -0.2279,-0.293 -0.4639,-0.5697 -0.7081,-0.8301 -0.2441,-0.2604 -0.4964,-0.5046 -0.7568,-0.7324 -1.237,-1.1719 -2.3844,-2.0264 -3.4424,-2.5635 -1.0579,-0.5371 -1.6194,-0.8057 -1.6845,-0.8057 -0.4232,-0.1953 -0.7243,-0.0651 -0.9034,0.3907 -0.179,0.4557 -0.0569,0.7812 0.3662,0.9765 0.0326,0 0.529,0.2442 1.4893,0.7325 0.9603,0.4882 2.0264,1.2695 3.1982,2.3437 0.3581,0.3581 0.6999,0.7243 1.0254,1.0986 0.3256,0.3744 0.6348,0.7569 0.9278,1.1475 -0.8138,0.1628 -1.9694,0.1953 -3.4668,0.0977 -1.4974,-0.0977 -3.0274,-0.7487 -4.58987,-1.9532 z"
         fill="#ffffff"
         id="path1-9" /></g><g
       style="fill:none"
       id="g13"
       transform="matrix(0.26458333,0,0,0.26458333,27.119704,14.671043)"><path
         d="m 9.76562,40.625 c 1.39978,0 2.59608,-0.4964 3.58888,-1.4893 0.9928,-0.9928 1.4893,-2.1891 1.4893,-3.5888 0,-1.3998 -0.4965,-2.5961 -1.4893,-3.5889 -0.9928,-0.9928 -2.1891,-1.4892 -3.58888,-1.4892 -1.39973,0 -2.59602,0.4964 -3.58886,1.4892 -0.99284,0.9928 -1.48926,2.1891 -1.48926,3.5889 0,1.3997 0.49642,2.596 1.48926,3.5888 0.99284,0.9929 2.18913,1.4893 3.58886,1.4893 z m 0,-8.5938 c 0.97658,0 1.80668,0.3418 2.49028,1.0254 0.6836,0.6836 1.0253,1.5137 1.0253,2.4903 0,0.9765 -0.3417,1.8066 -1.0253,2.4902 -0.6836,0.6836 -1.5137,1.0254 -2.49028,1.0254 -0.97656,0 -1.80664,-0.3418 -2.49023,-1.0254 C 6.5918,37.3535 6.25,36.5234 6.25,35.5469 c 0,-0.9766 0.3418,-1.8067 1.02539,-2.4903 0.68359,-0.6836 1.51367,-1.0254 2.49023,-1.0254 z m 27.05078,9.375 c 0.8789,0 1.6357,-0.3173 2.2705,-0.9521 0.6348,-0.6348 0.9522,-1.3916 0.9522,-2.2705 0,-0.8789 -0.3174,-1.6357 -0.9522,-2.2705 -0.6348,-0.6348 -1.3916,-0.9522 -2.2705,-0.9522 -0.8789,0 -1.6357,0.3174 -2.2705,0.9522 -0.6348,0.6348 -0.9521,1.3916 -0.9521,2.2705 0,0.8789 0.3173,1.6357 0.9521,2.2705 0.6348,0.6348 1.3916,0.9521 2.2705,0.9521 z m 0,-4.8828 c 0.4557,0 0.8464,0.1628 1.1719,0.4883 0.3255,0.3255 0.4883,0.7162 0.4883,1.1719 0,0.4557 -0.1628,0.8463 -0.4883,1.1719 -0.3255,0.3255 -0.7162,0.4883 -1.1719,0.4883 -0.4557,0 -0.8463,-0.1628 -1.1719,-0.4883 -0.3255,-0.3256 -0.4883,-0.7162 -0.4883,-1.1719 0,-0.4557 0.1628,-0.8464 0.4883,-1.1719 0.3256,-0.3255 0.7162,-0.4883 1.1719,-0.4883 z m 7.7148,-2.9296 H 43.75 v -6.3965 c 0,-1.237 -0.4476,-2.3031 -1.3428,-3.1983 C 41.512,23.1038 40.446,22.6562 39.209,22.6562 h -4.0528 v -3.125 c 0,-0.2278 -0.0732,-0.415 -0.2197,-0.5615 C 34.79,18.8232 34.6029,18.75 34.375,18.75 h -0.7812 v -3.4668 l 2.0019,-1.3672 c 0.0977,-0.0651 0.179,-0.1546 0.2441,-0.2685 0.0651,-0.114 0.0977,-0.236 0.0977,-0.3663 0,-0.2278 -0.0732,-0.415 -0.2197,-0.5615 C 35.5713,12.5732 35.3841,12.5 35.1562,12.5 c -0.0976,0 -0.179,0.0081 -0.2441,0.0244 -0.0651,0.0163 -0.1302,0.057 -0.1953,0.1221 L 32.373,14.209 c -0.0976,0.0651 -0.179,0.1546 -0.2441,0.2685 -0.0651,0.114 -0.0977,0.236 -0.0977,0.3663 V 18.75 H 31.25 c -0.2279,0 -0.415,0.0732 -0.5615,0.2197 -0.1465,0.1465 -0.2197,0.3337 -0.2197,0.5615 v 3.125 H 28.7109 L 24.4629,8.54492 C 24.6257,8.47982 24.7559,8.38216 24.8535,8.25195 24.9512,8.12175 25,7.97526 25,7.8125 V 6.05469 C 25,5.46875 24.7884,4.96419 24.3652,4.54102 23.9421,4.11784 23.4375,3.90625 22.8516,3.90625 H 8.39844 c -0.58594,0 -1.0905,0.21159 -1.51367,0.63477 C 6.46159,4.96419 6.25,5.46875 6.25,6.05469 V 7.8125 c 0,0.19531 0.05697,0.35807 0.1709,0.48828 0.11393,0.13021 0.25228,0.21159 0.41504,0.24414 L 3.95508,20.752 0.195312,25.293 C 0.130208,25.3581 0.0813802,25.4313 0.0488281,25.5127 0.016276,25.5941 0,25.6836 0,25.7812 c 0,0.2279 0.0732422,0.4151 0.219727,0.5616 0.146484,0.1465 0.333658,0.2197 0.561523,0.2197 H 4.6875 c 0.09766,0 0.19531,-0.0244 0.29297,-0.0732 0.09765,-0.0489 0.17904,-0.1058 0.24414,-0.1709 l 0.92773,-0.8789 0.53711,0.8789 C 4.73633,26.9694 3.13314,28.1331 1.87988,29.8096 0.626628,31.486 0,33.3984 0,35.5469 c 0,1.3672 0.260417,2.6367 0.78125,3.8086 0.48828,1.1718 1.18001,2.2054 2.0752,3.1006 0.89518,0.8951 1.92871,1.5869 3.10058,2.0751 1.17188,0.5209 2.44141,0.7813 3.80859,0.7813 2.21358,0 4.17478,-0.6592 5.88378,-1.9775 1.709,-1.3184 2.8565,-2.9867 3.4424,-5.0049 l 0.0488,-0.0489 h 10.5469 c 0.0326,1.9532 0.7406,3.6133 2.124,4.9805 1.3835,1.3672 3.0518,2.0508 5.0049,2.0508 1.9531,0 3.6214,-0.6836 5.0049,-2.0508 1.3835,-1.3672 2.0915,-3.0273 2.124,-4.9805 h 0.5859 c 0.6511,0 1.2045,-0.2278 1.6602,-0.6835 0.4557,-0.4558 0.6836,-1.0092 0.6836,-1.6602 0,-0.651 -0.2279,-1.2044 -0.6836,-1.6602 -0.4557,-0.4557 -1.0091,-0.6835 -1.6602,-0.6835 z m -5.3222,-9.375 c 0.8138,0 1.5137,0.2929 2.0996,0.8789 0.5859,0.5859 0.8789,1.2858 0.8789,2.0996 v 6.3476 c -0.651,-0.7487 -1.4404,-1.3509 -2.3682,-1.8066 -0.9277,-0.4557 -1.9287,-0.6836 -3.0029,-0.6836 -0.293,0 -0.5859,0.0163 -0.8789,0.0488 -0.293,0.0326 -0.5697,0.0977 -0.8301,0.1953 L 35.1562,31.25 v -7.0312 z m -7.1778,-3.9063 h 1.5626 v 11.5234 c -0.293,0.1628 -0.5697,0.3337 -0.8301,0.5127 -0.2604,0.1791 -0.5046,0.3662 -0.7325,0.5616 z m -4.9804,16.4063 -1.6602,-3.125 h 1.9532 v 3.125 z M 5.66406,20.3125 8.44727,8.59375 H 10.1562 V 20.3125 Z M 11.7188,8.59375 h 1.5624 V 20.3125 h -1.5624 z m 3.125,0 h 8.0078 l 4.1992,14.06245 h -1.4649 c -0.0325,0 -0.0651,0 -0.0976,0 -0.0326,0 -0.0488,0 -0.0488,0 L 24.3164,20.9961 24.707,20.752 c 0.0977,-0.0652 0.1709,-0.1547 0.2198,-0.2686 C 24.9756,20.3695 25,20.2474 25,20.1172 c 0,-0.2279 -0.0732,-0.4151 -0.2197,-0.5615 -0.1465,-0.1465 -0.3337,-0.2198 -0.5615,-0.2198 -0.0977,0 -0.1872,0.0163 -0.2686,0.0489 -0.0814,0.0325 -0.1546,0.0651 -0.2197,0.0976 l -2.3438,1.7578 c -0.0976,0.0651 -0.1709,0.1547 -0.2197,0.2686 -0.0488,0.1139 -0.0732,0.236 -0.0732,0.3662 0,0.2279 0.0732,0.415 0.2197,0.5615 0.1465,0.1465 0.3336,0.2197 0.5615,0.2197 0.0977,0 0.1872,-0.0162 0.2686,-0.0488 0.0813,-0.0325 0.1546,-0.0651 0.2197,-0.0976 l 0.7324,-0.5371 0.7813,1.2207 c -0.3581,0.2604 -0.6511,0.6022 -0.879,1.0254 -0.2278,0.4231 -0.3418,0.8789 -0.3418,1.3671 v 2.7832 L 18.6523,20.752 c -0.0651,-0.1303 -0.1546,-0.236 -0.2685,-0.3174 -0.1139,-0.0814 -0.2523,-0.1221 -0.415,-0.1221 h -3.125 z M 25.5859,24.2188 h 1.7579 v 1.5624 h -3.125 v -0.1953 c 0,-0.3906 0.1302,-0.7161 0.3906,-0.9765 0.2604,-0.2604 0.5859,-0.3906 0.9765,-0.3906 z m -1.3671,3.125 h 3.125 v 1.5624 h -3.125 z m 0,4.0039 c 0,-0.0326 0,-0.057 0,-0.0733 0,-0.0163 0,-0.0244 0,-0.0244 v -0.7812 h 3.125 v 1.5624 H 24.5605 Z M 7.8125,6.05469 c 0,-0.16276 0.05697,-0.30111 0.1709,-0.41504 0.11393,-0.11394 0.25228,-0.1709 0.41504,-0.1709 H 22.8516 c 0.1627,0 0.3011,0.05696 0.415,0.1709 0.1139,0.11393 0.1709,0.25228 0.1709,0.41504 V 7.03125 H 7.8125 Z M 1.66016,36.7676 3.61328,35.4492 c 0.13021,-0.0976 0.22787,-0.2034 0.29297,-0.3174 0.0651,-0.1139 0.09766,-0.236 0.09766,-0.3662 0,-0.1953 -0.08138,-0.3743 -0.24414,-0.5371 -0.16276,-0.1627 -0.3418,-0.2441 -0.53711,-0.2441 -0.09766,0 -0.17904,0.0163 -0.24414,0.0488 -0.06511,0.0326 -0.13021,0.0651 -0.19532,0.0977 l -1.17187,0.7812 c 0.0651,-0.8138 0.236,-1.5788 0.51269,-2.2949 C 2.40072,31.901 2.76693,31.25 3.22266,30.6641 H 3.17383 l 2.34375,0.4882 c 0.03255,0 0.05696,0 0.07324,0 0.01628,0 0.04069,0 0.07324,0 0.22787,0 0.41504,-0.0732 0.56153,-0.2197 0.14648,-0.1465 0.21972,-0.3336 0.21972,-0.5615 0,-0.1953 -0.05696,-0.3662 -0.1709,-0.5127 C 6.16048,29.7119 6.00586,29.6224 5.81055,29.5898 L 4.44336,29.3457 C 4.99674,28.8574 5.62337,28.4505 6.32324,28.125 7.02311,27.7995 7.7474,27.5716 8.49609,27.4414 h 0.04883 l 1.31836,2.002 c 0.09766,0.0976 0.20342,0.179 0.31742,0.2441 0.1139,0.0651 0.236,0.0977 0.3662,0.0977 0.1953,0 0.3743,-0.0733 0.5371,-0.2198 0.1627,-0.1465 0.2441,-0.3336 0.2441,-0.5615 0,-0.0977 -0.0163,-0.179 -0.0488,-0.2441 -0.0326,-0.0651 -0.0651,-0.1302 -0.0977,-0.1953 l -0.7812,-1.1719 c 0.8138,0.0651 1.5788,0.236 2.2949,0.5127 0.7162,0.2767 1.3672,0.6429 1.9531,1.0986 l -0.4882,2.2949 c 0,0.0326 0,0.0651 0,0.0977 0,0.0325 0,0.0651 0,0.0976 0,0.1954 0.0732,0.3744 0.2197,0.5371 0.1465,0.1628 0.3336,0.2442 0.5615,0.2442 0.1953,0 0.3662,-0.0651 0.5127,-0.1953 0.1465,-0.1302 0.236,-0.2767 0.2686,-0.4395 l 0.2441,-1.416 c 0.4883,0.5859 0.8952,1.2207 1.2207,1.9043 0.3255,0.6836 0.5534,1.416 0.6836,2.1973 v 0.0488 l -2.002,1.3184 c -0.0976,0.0651 -0.179,0.1546 -0.2441,0.2685 -0.0651,0.1139 -0.0977,0.236 -0.0977,0.3662 0,0.2279 0.0733,0.4151 0.2198,0.5615 0.1465,0.1465 0.3336,0.2198 0.5615,0.2198 0.0651,0 0.1383,-0.0082 0.2197,-0.0244 0.0814,-0.0163 0.1546,-0.0407 0.2197,-0.0733 l 1.1719,-0.8301 c -0.0651,0.8138 -0.236,1.5788 -0.5127,2.295 -0.2767,0.7161 -0.6429,1.3834 -1.0986,2.0019 v -0.0488 l -2.2949,-0.4395 c -0.0326,0 -0.0651,-0.0081 -0.0977,-0.0244 -0.0325,-0.0163 -0.0651,-0.0244 -0.0976,-0.0244 -0.1954,0 -0.3744,0.0814 -0.5372,0.2441 -0.1627,0.1628 -0.2441,0.3418 -0.2441,0.5372 0,0.1953 0.0651,0.3662 0.1953,0.5127 0.1302,0.1464 0.2767,0.236 0.4395,0.2685 l 1.416,0.293 c -0.5859,0.4883 -1.2207,0.887 -1.9043,1.1963 -0.6836,0.3092 -1.416,0.5289 -2.1973,0.6591 H 10.9375 L 9.61914,41.6992 C 9.55404,41.569 9.46452,41.4714 9.35059,41.4062 9.23665,41.3411 9.11458,41.3086 8.98438,41.3086 c -0.22787,0 -0.41504,0.0814 -0.56153,0.2441 -0.14648,0.1628 -0.21973,0.3418 -0.21973,0.5371 0,0.0977 0.00814,0.1791 0.02442,0.2442 0.01628,0.0651 0.04069,0.1302 0.07324,0.1953 l 0.83008,1.1719 C 8.31706,43.6361 7.55208,43.4652 6.83594,43.1885 6.11979,42.9118 5.45247,42.5456 4.83398,42.0898 l 0.04883,0.0489 0.43946,-2.3438 c 0,-0.0325 0.00813,-0.0569 0.02441,-0.0732 0.01628,-0.0163 0.02441,-0.0407 0.02441,-0.0733 0,-0.2278 -0.08138,-0.415 -0.24414,-0.5615 -0.16276,-0.1465 -0.34179,-0.2197 -0.53711,-0.2197 -0.19531,0 -0.36621,0.057 -0.51269,0.1709 -0.14649,0.1139 -0.236,0.2685 -0.26856,0.4639 L 3.51562,40.8691 C 3.02734,40.3158 2.62858,39.6891 2.31934,38.9893 2.01009,38.2894 1.79036,37.5651 1.66016,36.8164 Z M 9.76562,25.7812 c -0.26041,0 -0.51269,0.0163 -0.75683,0.0489 -0.24414,0.0325 -0.49642,0.0651 -0.75684,0.0976 H 8.30078 L 7.71484,25 H 15.918 l 6.2011,11.7188 h -2.6855 c 0.0325,-0.1628 0.057,-0.3418 0.0732,-0.5372 0.0163,-0.1953 0.0244,-0.4069 0.0244,-0.6347 0,-1.3347 -0.2604,-2.6042 -0.7812,-3.8086 C 18.2292,30.5664 17.5293,29.541 16.6504,28.6621 15.7715,27.7832 14.7461,27.0833 13.5742,26.5625 12.3698,26.0417 11.1003,25.7812 9.76562,25.7812 Z M 23.9258,36.7188 17.0898,23.877 C 17.0247,23.7467 16.9352,23.641 16.8213,23.5596 16.7074,23.4782 16.569,23.4375 16.4062,23.4375 H 6.25 c -0.09766,0 -0.19531,0.0244 -0.29297,0.0732 -0.09765,0.0489 -0.17904,0.1058 -0.24414,0.1709 L 4.3457,25 H 2.44141 L 5.0293,21.875 h 12.4512 l 7.8125,14.8438 z m 4.9804,-12.5 h 1.5626 v 10.7421 c -0.1303,0.2605 -0.2523,0.5371 -0.3663,0.8301 -0.1139,0.293 -0.2034,0.586 -0.2685,0.8789 v 0.0489 h -0.9278 z m 2.4903,15.1367 0.9765,-0.6836 c 0.0977,-0.0977 0.1791,-0.1953 0.2442,-0.293 0.0651,-0.0977 0.0976,-0.2116 0.0976,-0.3418 0,-0.2279 -0.0732,-0.415 -0.2197,-0.5615 -0.1465,-0.1465 -0.3336,-0.2197 -0.5615,-0.2197 -0.0651,0 -0.1384,0.0081 -0.2197,0.0244 -0.0814,0.0162 -0.1547,0.0407 -0.2198,0.0732 L 31.2988,37.5 c 0.0651,-0.4232 0.1709,-0.8301 0.3174,-1.2207 0.1465,-0.3906 0.3337,-0.765 0.5615,-1.1231 h -0.0488 l 1.2207,0.2442 c 0.0326,0 0.057,0 0.0733,0 0.0162,0 0.0406,0 0.0732,0 0.2279,0 0.415,-0.0733 0.5615,-0.2197 0.1465,-0.1465 0.2197,-0.3337 0.2197,-0.5616 0,-0.1953 -0.0651,-0.3662 -0.1953,-0.5127 -0.1302,-0.1464 -0.2767,-0.236 -0.4394,-0.2685 l -0.2442,-0.0488 c 0.3256,-0.2279 0.6674,-0.4314 1.0254,-0.6104 0.3581,-0.179 0.7487,-0.3174 1.1719,-0.415 h 0.0488 l 0.6836,1.0254 c 0.0977,0.0976 0.1953,0.179 0.293,0.2441 0.0977,0.0651 0.2116,0.0977 0.3418,0.0977 0.2279,0 0.415,-0.0814 0.5615,-0.2442 0.1465,-0.1627 0.2197,-0.3418 0.2197,-0.5371 0,-0.0976 -0.0081,-0.1872 -0.0244,-0.2685 -0.0163,-0.0814 -0.0407,-0.1547 -0.0732,-0.2198 L 37.5,32.666 c 0.4232,0.0651 0.8301,0.1709 1.2207,0.3174 0.3906,0.1465 0.765,0.3337 1.1231,0.5615 l -0.2442,1.1719 c 0,0.0325 0,0.0651 0,0.0977 0,0.0325 0,0.0488 0,0.0488 0,0.2278 0.0733,0.415 0.2197,0.5615 0.1465,0.1465 0.3337,0.2197 0.5616,0.2197 0.1953,0 0.3662,-0.0569 0.5127,-0.1709 0.1464,-0.1139 0.236,-0.2685 0.2685,-0.4638 l 0.0488,-0.2442 c 0.2279,0.3255 0.4314,0.6755 0.6104,1.0498 0.179,0.3744 0.3174,0.7569 0.415,1.1475 v 0.0488 l -1.0254,0.7324 c -0.0976,0.0651 -0.179,0.1547 -0.2441,0.2686 -0.0651,0.1139 -0.0977,0.236 -0.0977,0.3662 0,0.1953 0.0814,0.3744 0.2442,0.5371 0.1627,0.1628 0.3418,0.2442 0.5371,0.2442 0.0976,0 0.1872,-0.0163 0.2685,-0.0489 0.0814,-0.0325 0.1547,-0.0651 0.2198,-0.0976 l 0.1953,-0.1465 c -0.0651,0.4557 -0.1709,0.8789 -0.3174,1.2695 -0.1465,0.3906 -0.3337,0.7487 -0.5615,1.0742 l -1.1719,-0.2441 c -0.0325,0 -0.057,0 -0.0732,0 -0.0163,0 -0.0407,0 -0.0733,0 -0.2278,0 -0.415,0.0814 -0.5615,0.2441 -0.1465,0.1628 -0.2197,0.3418 -0.2197,0.5371 0,0.1954 0.0569,0.3663 0.1709,0.5127 0.1139,0.1465 0.2685,0.236 0.4638,0.2686 l 0.2442,0.0488 c -0.3255,0.2279 -0.6755,0.4313 -1.0498,0.6104 -0.3744,0.179 -0.7569,0.3174 -1.1475,0.415 H 37.9883 L 37.2559,42.627 c -0.0651,-0.0977 -0.1547,-0.1791 -0.2686,-0.2442 -0.1139,-0.0651 -0.236,-0.0976 -0.3662,-0.0976 -0.1953,0 -0.3744,0.0732 -0.5371,0.2197 -0.1628,0.1465 -0.2442,0.3336 -0.2442,0.5615 0,0.0651 0.0163,0.1384 0.0489,0.2197 0.0325,0.0814 0.0651,0.1547 0.0976,0.2198 l 0.1465,0.1953 c -0.4557,-0.0651 -0.8789,-0.1709 -1.2695,-0.3174 -0.3906,-0.1465 -0.7487,-0.3337 -1.0742,-0.5615 v 0.0488 l 0.2441,-1.2207 c 0,-0.0326 0,-0.057 0,-0.0733 0,-0.0162 0,-0.0406 0,-0.0732 0,-0.1953 -0.0814,-0.3743 -0.2441,-0.5371 -0.1628,-0.1628 -0.3418,-0.2441 -0.5371,-0.2441 -0.1954,0 -0.3663,0.0651 -0.5127,0.1953 -0.1465,0.1302 -0.236,0.2767 -0.2686,0.4394 l -0.0488,0.2442 c -0.2279,-0.293 -0.4313,-0.6267 -0.6104,-1.001 -0.179,-0.3744 -0.3174,-0.7731 -0.415,-1.1963 z m 13.1347,-2.6367 h -0.7324 c -0.0651,-0.293 -0.1465,-0.5697 -0.2441,-0.8301 -0.0977,-0.2604 -0.2116,-0.5209 -0.3418,-0.7813 l 0.0488,0.0488 h 1.2695 c 0.2279,0 0.4151,0.0733 0.5616,0.2198 0.1465,0.1465 0.2197,0.3336 0.2197,0.5615 0,0.2279 -0.0732,0.415 -0.2197,0.5615 -0.1465,0.1465 -0.3337,0.2198 -0.5616,0.2198 z M 37.5,28.9062 c 0.2279,0 0.415,-0.0732 0.5615,-0.2197 0.1465,-0.1465 0.2197,-0.3336 0.2197,-0.5615 v -1.5625 c 0,-0.2279 -0.0732,-0.415 -0.2197,-0.5615 -0.1465,-0.1465 -0.3336,-0.2198 -0.5615,-0.2198 -0.2279,0 -0.415,0.0733 -0.5615,0.2198 -0.1465,0.1465 -0.2197,0.3336 -0.2197,0.5615 v 1.5625 c 0,0.2279 0.0732,0.415 0.2197,0.5615 0.1465,0.1465 0.3336,0.2197 0.5615,0.2197 z m 2.3438,0 c 0.2278,0 0.415,-0.0732 0.5615,-0.2197 0.1465,-0.1465 0.2197,-0.3336 0.2197,-0.5615 v -1.5625 c 0,-0.2279 -0.0732,-0.415 -0.2197,-0.5615 -0.1465,-0.1465 -0.3337,-0.2198 -0.5615,-0.2198 -0.2279,0 -0.4151,0.0733 -0.5616,0.2198 -0.1465,0.1465 -0.2197,0.3336 -0.2197,0.5615 v 1.5625 c 0,0.2279 0.0732,0.415 0.2197,0.5615 0.1465,0.1465 0.3337,0.2197 0.5616,0.2197 z"
         fill="#ffffff"
         id="path1-8" /></g><g
       style="fill:none"
       id="g14"
       transform="matrix(0.26458333,0,0,0.26458333,98.592122,14.774396)"><path
         d="m 48.4375,27.2949 c 0,-1.6927 -0.3906,-3.304 -1.1719,-4.834 C 46.4844,20.931 45.4102,19.6452 44.043,18.6035 43.75,18.4082 43.4326,18.2536 43.0908,18.1396 42.749,18.0257 42.3991,17.9688 42.041,17.9688 c -0.4232,0 -0.8382,0.0813 -1.2451,0.2441 -0.4069,0.1628 -0.7568,0.3906 -1.0498,0.6836 C 39.681,18.8639 39.624,18.8232 39.5752,18.7744 39.5264,18.7256 39.4694,18.6849 39.4043,18.6523 39.209,18.457 38.9811,18.3105 38.7207,18.2129 38.4603,18.1152 38.1999,18.0501 37.9395,18.0176 l 0.3417,-3.7598 c 0,-0.0651 0,-0.1221 0,-0.1709 0,-0.0488 0,-0.0895 0,-0.1221 0,-0.8463 -0.2929,-1.5625 -0.8789,-2.1484 -0.5859,-0.5859 -1.302,-0.8789 -2.1484,-0.8789 h -0.1953 c -0.8464,0 -1.5625,0.293 -2.1484,0.8789 -0.586,0.5859 -0.879,1.3021 -0.879,2.1484 0,0.0326 0,0.0733 0,0.1221 0,0.0488 0,0.1058 0,0.1709 l 0.3418,3.7598 c -0.2278,0.0651 -0.4638,0.1465 -0.708,0.2441 -0.2441,0.0977 -0.4638,0.2116 -0.6591,0.3418 -0.0651,0.0651 -0.1302,0.1302 -0.1954,0.1953 -0.0651,0.0651 -0.1302,0.114 -0.1953,0.1465 -0.0325,-0.0325 -0.0651,-0.0651 -0.0976,-0.0976 -0.0326,-0.0326 -0.0814,-0.0651 -0.1465,-0.0977 0.0325,-0.1302 0.057,-0.2604 0.0732,-0.3906 0.0163,-0.1302 0.0245,-0.2604 0.0245,-0.3906 0,-0.4883 -0.0733,-0.9685 -0.2198,-1.4405 -0.1465,-0.472 -0.3662,-0.9033 -0.6592,-1.2939 0.293,-0.3906 0.5127,-0.822 0.6592,-1.294 0.1465,-0.472 0.2198,-0.9521 0.2198,-1.4404 0,-1.3346 -0.4883,-2.4658 -1.4649,-3.39355 C 28.0273,8.17871 26.8555,7.74739 25.4883,7.8125 25.2604,7.09636 24.8698,6.47786 24.3164,5.95703 23.763,5.4362 23.1283,5.07812 22.4121,4.88281 21.9238,4.29688 21.3379,3.84929 20.6543,3.54004 19.9707,3.23079 19.2383,3.09245 18.457,3.125 18.1315,2.21354 17.57,1.46484 16.7725,0.878906 15.9749,0.292969 15.0716,0 14.0625,0 13.2161,0 12.4349,0.21159 11.7188,0.634766 11.0026,1.05794 10.4329,1.62761 10.0098,2.34375 8.9681,2.3763 8.04036,2.72624 7.22656,3.39355 6.41276,4.06087 5.87565,4.88281 5.61523,5.85938 4.41081,6.31511 3.43424,7.08008 2.68555,8.1543 1.93685,9.22852 1.5625,10.4167 1.5625,11.7188 c 0,1.0416 0.24414,2.0182 0.73242,2.9296 0.48828,0.9115 1.1556,1.6602 2.00196,2.2461 -0.13021,0.293 -0.22787,0.5941 -0.29297,0.9034 -0.06511,0.3092 -0.09766,0.6266 -0.09766,0.9521 0,0.7161 0.14648,1.3835 0.43945,2.002 0.29297,0.6184 0.71615,1.1556 1.26953,1.6113 -0.0651,0.1627 -0.10579,0.3336 -0.12207,0.5127 -0.01627,0.179 -0.02441,0.3662 -0.02441,0.5615 0,1.2044 0.39876,2.2461 1.19629,3.125 0.79752,0.8789 1.76595,1.3835 2.90527,1.5137 l 1.75779,4.834 c -0.4557,0.3255 -0.8707,0.6917 -1.2451,1.0986 -0.37434,0.4069 -0.708,0.8545 -1.00097,1.3428 L 5.0293,34.4238 c -0.09766,0 -0.18718,-0.0081 -0.26856,-0.0244 C 4.67936,34.3831 4.60612,34.375 4.54102,34.375 c -0.61849,0 -1.13933,0.2116 -1.5625,0.6348 -0.42318,0.4231 -0.63477,0.944 -0.63477,1.5625 v 0.2929 c 0,0.1302 0.00814,0.2442 0.02441,0.3418 0.01628,0.0977 0.04069,0.1953 0.07325,0.293 H 2.34375 C 1.69271,37.5 1.13932,37.7279 0.683594,38.1836 0.227865,38.6393 0,39.1927 0,39.8438 c 0,0.651 0.227865,1.2044 0.683594,1.6601 0.455726,0.4557 1.009116,0.6836 1.660156,0.6836 h 0.09766 c -0.03256,0.0977 -0.05697,0.1953 -0.07325,0.293 -0.01627,0.0976 -0.02441,0.2116 -0.02441,0.3418 v 0.2929 c 0,0.6185 0.21159,1.1394 0.63477,1.5625 0.42317,0.4232 0.94401,0.6348 1.5625,0.6348 0.0651,0 0.13834,-0.0081 0.21972,-0.0244 0.08138,-0.0163 0.1709,-0.0244 0.26856,-0.0244 l 4.05273,-0.9278 c 0.78125,1.237 1.81477,2.2299 3.10057,2.9786 1.2858,0.7487 2.6937,1.123 4.2236,1.123 h 0.1954 c 0.1953,0 0.4069,-0.0081 0.6347,-0.0244 0.2279,-0.0163 0.4558,-0.0407 0.6836,-0.0733 l 26.7578,-4.1015 c 1.1068,-0.1953 2.0101,-0.6999 2.71,-1.5137 0.6999,-0.8138 1.0498,-1.7741 1.0498,-2.8808 0,-0.879 -0.236,-1.6765 -0.708,-2.3926 -0.472,-0.7162 -1.0824,-1.2533 -1.8311,-1.6114 0.8138,-0.944 1.4405,-2.01 1.8799,-3.1982 0.4395,-1.1881 0.6592,-2.417 0.6592,-3.6865 z M 38.4766,19.873 c 1.1718,0.879 2.0833,1.9939 2.7343,3.3448 0.6511,1.3509 0.9766,2.775 0.9766,4.2724 v 2.8321 c 0,0.8138 -0.0977,1.6032 -0.293,2.3681 -0.1953,0.765 -0.4883,1.5056 -0.8789,2.2217 l -6.25,-0.9766 c -0.1302,-0.5533 -0.2278,-1.123 -0.2929,-1.7089 -0.0651,-0.586 -0.0977,-1.1719 -0.0977,-1.7578 v -3.125 c 0,-0.4232 0.0163,-0.8301 0.0488,-1.2208 0.0326,-0.3906 0.0814,-0.7812 0.1465,-1.1718 0.0977,0.0325 0.1953,0.0488 0.293,0.0488 0.0976,0 0.1953,0 0.2929,0 1.1068,0 2.0346,-0.2197 2.7833,-0.6592 0.7487,-0.4394 1.123,-1.001 1.123,-1.6846 0,-0.358 -0.1221,-0.6998 -0.3662,-1.0253 -0.2442,-0.3256 -0.5941,-0.586 -1.0498,-0.7813 l 0.1465,-1.2695 c 0.1302,0.0325 0.2522,0.0732 0.3662,0.122 0.1139,0.0489 0.2197,0.1058 0.3174,0.1709 z M 35.0586,12.5 h 0.1953 c 0.3906,0 0.7324,0.1465 1.0254,0.4395 0.293,0.2929 0.4395,0.6347 0.4395,1.0253 0,0.0326 0,0.057 0,0.0733 0,0.0163 0,0.0407 0,0.0732 l -0.7325,7.7637 0.6348,0.1953 c 0.3255,0.1302 0.5534,0.2523 0.6836,0.3662 0.1302,0.114 0.1953,0.1872 0.1953,0.2197 0,0.0977 -0.2034,0.2523 -0.6104,0.4639 -0.4069,0.2116 -0.9847,0.3174 -1.7334,0.3174 -0.7486,0 -1.3264,-0.1058 -1.7333,-0.3174 -0.407,-0.2116 -0.6104,-0.3662 -0.6104,-0.4639 0,-0.0325 0.0651,-0.1057 0.1953,-0.2197 0.1302,-0.1139 0.3581,-0.236 0.6836,-0.3662 l 0.6348,-0.1953 -0.7324,-7.7637 c 0,-0.0325 0,-0.0569 0,-0.0732 0,-0.0163 0,-0.0407 0,-0.0733 0,-0.3906 0.1464,-0.7324 0.4394,-1.0253 0.293,-0.293 0.6348,-0.4395 1.0254,-0.4395 z m -2.5391,7.0801 0.1465,1.2695 c -0.4557,0.1953 -0.8056,0.4557 -1.0498,0.7813 -0.2441,0.3255 -0.3662,0.6673 -0.3662,1.0253 0,0.4232 0.1628,0.8057 0.4883,1.1475 0.3255,0.3418 0.765,0.6266 1.3183,0.8545 -0.0651,0.4232 -0.122,0.8626 -0.1709,1.3184 -0.0488,0.4557 -0.0732,0.9114 -0.0732,1.3672 v 3.125 c 0,0.5533 0.0244,1.0986 0.0732,1.6357 0.0489,0.5371 0.1221,1.0661 0.2198,1.5869 L 28.5156,32.959 C 28.3854,32.5358 28.2878,32.1045 28.2227,31.665 28.1576,31.2256 28.125,30.778 28.125,30.3223 v -2.8321 c 0,-1.4974 0.3337,-2.9215 1.001,-4.2724 0.6673,-1.3509 1.6032,-2.4658 2.8076,-3.3448 0.0976,-0.0651 0.1953,-0.122 0.293,-0.1709 0.0976,-0.0488 0.1953,-0.0895 0.2929,-0.122 z m -8.4472,12.7441 c -0.1953,-0.5534 -0.35,-1.1068 -0.4639,-1.6601 -0.1139,-0.5534 -0.1709,-1.1231 -0.1709,-1.709 v -1.6602 c 0,-1.4323 0.3337,-2.8076 1.001,-4.126 0.6673,-1.3183 1.5869,-2.4169 2.7588,-3.2959 0.1627,-0.0976 0.3336,-0.179 0.5127,-0.2441 0.179,-0.0651 0.3662,-0.0977 0.5615,-0.0977 0.2278,0 0.4476,0.0489 0.6592,0.1465 0.2116,0.0977 0.3987,0.2116 0.5615,0.3418 -0.944,1.0091 -1.6683,2.1566 -2.1729,3.4424 -0.5045,1.2858 -0.7568,2.6286 -0.7568,4.0283 v 2.8321 c 0,0.4231 0.0244,0.83 0.0732,1.2207 0.0489,0.3906 0.1221,0.7812 0.2198,1.1718 z M 24.1699,8.83789 24.3164,9.61914 25.0977,9.47266 C 25.2279,9.44011 25.3499,9.41569 25.4639,9.39941 25.5778,9.38314 25.6836,9.375 25.7812,9.375 c 0.8464,0 1.5788,0.30925 2.1973,0.9277 0.6185,0.6185 0.9277,1.3509 0.9277,2.1973 0,0.4232 -0.0732,0.8219 -0.2197,1.1963 -0.1465,0.3743 -0.3662,0.708 -0.6592,1.001 l -0.5371,0.5371 0.5371,0.5371 c 0.293,0.293 0.5127,0.6266 0.6592,1.001 0.1465,0.3743 0.2197,0.7731 0.2197,1.1963 0,0 0,0.0081 0,0.0244 0,0.0162 0,0.0244 0,0.0244 -0.0976,0 -0.2034,-0.0082 -0.3173,-0.0244 -0.114,-0.0163 -0.2198,-0.0244 -0.3174,-0.0244 -0.3581,0 -0.708,0.0569 -1.0498,0.1708 -0.3418,0.114 -0.6592,0.2686 -0.9522,0.4639 -0.6836,0.5208 -1.3102,1.1231 -1.8799,1.8067 -0.5696,0.6836 -1.0335,1.3997 -1.3916,2.1484 -0.1627,-0.4557 -0.3173,-0.9033 -0.4638,-1.3428 -0.1465,-0.4394 -0.3011,-0.8707 -0.4639,-1.2939 0.3581,-1.888 1.0173,-3.361 1.9776,-4.419 0.9602,-1.0579 1.4404,-1.6032 1.4404,-1.6357 L 25,13.2812 24.5117,12.6953 c -0.0651,0.0326 -0.5045,0.472 -1.3183,1.3184 -0.8138,0.8463 -1.5137,2.0345 -2.0996,3.5644 -0.8139,-1.8554 -1.5463,-3.3447 -2.1973,-4.4677 -0.6511,-1.1231 -1.0091,-1.7334 -1.0742,-1.8311 l -1.2696,0.8789 c 0,0 0.2523,0.4395 0.7569,1.3184 0.5045,0.8789 1.1149,2.067 1.831,3.5644 -1.1718,-0.4557 -2.303,-0.6754 -3.3935,-0.6592 -1.0905,0.0163 -1.6846,0.0244 -1.7823,0.0244 l 0.1954,1.5626 c 0.5859,-0.0652 1.5462,-0.0245 2.8808,0.122 1.3347,0.1465 2.3926,0.6104 3.1738,1.3916 0.2605,0.6836 0.5209,1.3916 0.7813,2.124 0.2604,0.7325 0.5208,1.4893 0.7812,2.2706 -1.2044,-0.586 -2.3844,-0.9359 -3.54,-1.0499 -1.1556,-0.1139 -1.7659,-0.1709 -1.8311,-0.1709 v 1.5626 c 0.0326,0 0.7162,0.0732 2.0508,0.2197 1.3347,0.1465 2.5065,0.6266 3.5157,1.4404 -0.0326,0.2279 -0.057,0.4639 -0.0733,0.708 -0.0163,0.2442 -0.0244,0.4802 -0.0244,0.708 v 1.6602 c 0,0.5208 0.0407,1.0416 0.1221,1.5625 0.0814,0.5208 0.2034,1.0254 0.3662,1.5136 l -4.4434,-0.6835 c -0.1302,0 -0.2523,-0.0082 -0.3662,-0.0245 -0.1139,-0.0162 -0.236,-0.0406 -0.3662,-0.0732 -0.8464,0 -1.5788,-0.3011 -2.1973,-0.9033 -0.6185,-0.6022 -0.9277,-1.3428 -0.9277,-2.2217 0,-0.1953 0.0163,-0.3825 0.0488,-0.5615 0.0326,-0.1791 0.0814,-0.3662 0.1465,-0.5615 L 14.502,26.416 13.9648,26.0742 C 13.5091,25.7812 13.151,25.3988 12.8906,24.9268 12.6302,24.4548 12.5,23.9583 12.5,23.4375 c 0,-0.293 0.0407,-0.5859 0.1221,-0.8789 0.0814,-0.293 0.2197,-0.5697 0.415,-0.8301 l 0.4883,-0.7324 -0.7813,-0.3906 c -0.8138,-0.4232 -1.4485,-1.0091 -1.9043,-1.7578 -0.4557,-0.7487 -0.6836,-1.5625 -0.6836,-2.4415 0,-1.0416 0.3174,-1.9775 0.9522,-2.8076 0.6348,-0.83 1.4567,-1.3916 2.4658,-1.6845 l 0.4883,-0.1465 0.0488,-0.4883 c 0.0977,-0.7813 0.4395,-1.42416 1.0254,-1.92871 0.586,-0.50456 1.2695,-0.75684 2.0508,-0.75684 0,0 0.0081,0 0.0244,0 0.0163,0 0.0407,0 0.0733,0 0.0325,0 0.0569,0.00814 0.0732,0.02441 0.0163,0.01628 0.0407,0.02442 0.0732,0.02442 l 0.586,0.04883 0.1953,-0.53711 c 0.2604,-0.58594 0.651,-1.04981 1.1719,-1.3916 0.5208,-0.3418 1.0905,-0.5127 1.709,-0.5127 0.7486,0 1.416,0.24414 2.0019,0.73242 0.5859,0.48828 0.944,1.10677 1.0742,1.85547 z M 10.6934,26.5625 h -0.5372 c -0.8463,0 -1.57873,-0.3092 -2.19722,-0.9277 -0.61849,-0.6185 -0.92773,-1.3509 -0.92773,-2.1973 0,-0.1953 0.01628,-0.3825 0.04883,-0.5615 0.03255,-0.1791 0.08138,-0.3662 0.14648,-0.5615 L 7.4707,21.7285 6.93359,21.3867 C 6.47786,21.0938 6.11979,20.7113 5.85938,20.2393 5.59896,19.7673 5.46875,19.2708 5.46875,18.75 c 0,-0.293 0.04069,-0.5859 0.12207,-0.8789 0.08138,-0.293 0.21973,-0.5697 0.41504,-0.8301 L 6.49414,16.3086 5.71289,15.918 C 4.89909,15.4948 4.26432,14.9089 3.80859,14.1602 3.35286,13.4115 3.125,12.5977 3.125,11.7188 3.125,10.6771 3.44238,9.74121 4.07715,8.91113 4.71191,8.08105 5.53385,7.51953 6.54297,7.22656 L 7.03125,7.08008 7.08008,6.5918 C 7.17773,5.81055 7.51953,5.16764 8.10547,4.66309 8.69141,4.15853 9.375,3.90625 10.1562,3.90625 c 0,0 0.0082,0 0.0245,0 0.0162,0 0.0407,0 0.0732,0 0.0326,0 0.057,0.00814 0.0732,0.02441 0.0163,0.01628 0.0407,0.02442 0.0733,0.02442 l 0.5859,0.04883 0.1953,-0.53711 c 0.2605,-0.58594 0.6511,-1.04981 1.1719,-1.3916 0.5208,-0.3418 1.0905,-0.5127 1.709,-0.5127 0.7487,0 1.416,0.24414 2.002,0.73242 0.5859,0.48828 0.944,1.10677 1.0742,1.85547 l 0.1465,0.78125 0.7812,-0.14648 C 18.1966,4.75261 18.3187,4.72819 18.4326,4.71191 18.5465,4.69564 18.6523,4.6875 18.75,4.6875 c 0.1953,0 0.3743,0.01628 0.5371,0.04883 0.1628,0.03255 0.3255,0.08138 0.4883,0.14648 -0.5859,0.16276 -1.1149,0.43132 -1.5869,0.80567 -0.472,0.37434 -0.8545,0.82194 -1.1475,1.34277 -1.0417,0.03255 -1.9694,0.38249 -2.7832,1.0498 -0.8138,0.66732 -1.3509,1.48926 -1.6113,2.46585 -1.2044,0.4557 -2.181,1.2207 -2.9297,2.2949 -0.7487,1.0742 -1.12305,2.2624 -1.12305,3.5644 0,1.0417 0.24414,2.0183 0.73242,2.9297 0.48828,0.9115 1.15563,1.6602 2.00193,2.2461 -0.1302,0.293 -0.2278,0.5941 -0.2929,0.9034 -0.0651,0.3092 -0.0977,0.6266 -0.0977,0.9521 0,0.7161 0.1465,1.3835 0.4395,2.002 0.2929,0.6184 0.7161,1.1556 1.2695,1.6113 -0.0651,0.1627 -0.1058,0.3336 -0.1221,0.5127 -0.0163,0.179 -0.0244,0.3662 -0.0244,0.5615 0,0.6836 0.1383,1.3265 0.415,1.9287 0.2767,0.6022 0.6429,1.1149 1.0987,1.5381 -0.2279,0.0651 -0.4558,0.1383 -0.6836,0.2197 -0.2279,0.0814 -0.4395,0.1872 -0.6348,0.3174 z M 3.90625,36.8652 v -0.2929 c 0,-0.1953 0.08138,-0.3581 0.24414,-0.4883 0.16276,-0.1302 0.3418,-0.1791 0.53711,-0.1465 l 3.71094,0.8301 C 8.33333,36.8978 8.2845,37.0199 8.25195,37.1338 8.2194,37.2477 8.18685,37.3698 8.1543,37.5 H 4.54102 C 4.37826,37.5 4.23177,37.4349 4.10156,37.3047 3.97135,37.1745 3.90625,37.028 3.90625,36.8652 Z M 1.5625,39.8438 c 0,-0.2279 0.07324,-0.4151 0.21973,-0.5616 0.14648,-0.1465 0.33366,-0.2197 0.56152,-0.2197 h 5.51758 c -0.03255,0.1302 -0.04883,0.2604 -0.04883,0.3906 0,0.1302 0,0.2604 0,0.3907 0,0.1302 0,0.2604 0,0.3906 0,0.1302 0.01628,0.2604 0.04883,0.3906 H 2.34375 C 2.11589,40.625 1.92871,40.5518 1.78223,40.4053 1.63574,40.2588 1.5625,40.0716 1.5625,39.8438 Z M 4.6875,43.75 C 4.49219,43.7826 4.31315,43.7337 4.15039,43.6035 3.98763,43.4733 3.90625,43.3105 3.90625,43.1152 v -0.2929 c 0,-0.1628 0.0651,-0.3093 0.19531,-0.4395 0.13021,-0.1302 0.2767,-0.1953 0.43946,-0.1953 H 8.1543 c 0.03255,0.1302 0.0651,0.2523 0.09765,0.3662 0.03255,0.1139 0.08138,0.236 0.14649,0.3662 z M 46.875,39.8438 c 0,0.7161 -0.2279,1.3427 -0.6836,1.8798 -0.4557,0.5371 -1.0417,0.8545 -1.7578,0.9522 l -26.7578,4.1015 c -0.1953,0.0326 -0.3825,0.057 -0.5615,0.0733 -0.1791,0.0163 -0.35,0.0244 -0.5127,0.0244 h -0.1954 c -1.9531,0 -3.6132,-0.6836 -4.9804,-2.0508 C 10.0586,43.457 9.375,41.7969 9.375,39.8438 c 0,-1.9532 0.6836,-3.6133 2.0508,-4.9805 1.3672,-1.3672 3.0273,-2.0508 4.9804,-2.0508 h 0.1954 c 0.1627,0 0.3336,0.0081 0.5127,0.0244 0.179,0.0163 0.3662,0.0407 0.5615,0.0733 l 26.7578,4.1015 c 0.7161,0.0977 1.3021,0.4151 1.7578,0.9522 0.4557,0.5371 0.6836,1.1637 0.6836,1.8799 z m 0,-10.8887 c 0,1.2044 -0.236,2.36 -0.708,3.4668 -0.472,1.1067 -1.1312,2.0996 -1.9775,2.9785 l -1.5137,-0.2442 c 0.3581,-0.7486 0.6266,-1.5299 0.8056,-2.3437 0.1791,-0.8138 0.2686,-1.6439 0.2686,-2.4902 v -2.8321 c 0,-1.3997 -0.2523,-2.7425 -0.7568,-4.0283 -0.5046,-1.2858 -1.2126,-2.4333 -2.1241,-3.4424 0.1628,-0.1627 0.3418,-0.2848 0.5371,-0.3662 0.1954,-0.0814 0.407,-0.1221 0.6348,-0.1221 0.1953,0 0.3825,0.0326 0.5615,0.0977 0.1791,0.0651 0.35,0.1465 0.5127,0.2441 1.1719,0.879 2.0915,1.9776 2.7588,3.2959 0.6673,1.3184 1.001,2.6937 1.001,4.126 z m -31.25,6.9824 h 1.5625 V 43.75 H 15.625 Z m 6.25,0 h 1.5625 V 43.75 H 21.875 Z m 6.25,0 h 1.5625 V 43.75 H 28.125 Z m 6.25,1.5625 h 1.5625 v 4.6875 H 34.375 Z m 6.25,0.7812 h 1.5625 v 3.125 H 40.625 Z"
         fill="#ffffff"
         id="path1-2" /></g><g
       style="fill:none"
       id="g15"
       transform="matrix(0.26458333,0,0,0.26458333,135.45184,14.774396)"><path
         d="m 7.27539,31.7871 c 0.32552,0.3255 0.69173,0.5778 1.09863,0.7568 0.4069,0.1791 0.8545,0.2686 1.34278,0.2686 h 0.8789 c 0.4883,0 0.9359,-0.0895 1.3428,-0.2686 0.4069,-0.179 0.7731,-0.4313 1.0986,-0.7568 0.3255,-0.3255 0.5778,-0.6917 0.7568,-1.0986 0.1791,-0.4069 0.2686,-0.8545 0.2686,-1.3428 0,-0.7161 -0.0814,-1.4242 -0.2441,-2.124 -0.1628,-0.6999 -0.4069,-1.3753 -0.7325,-2.0264 L 10.8398,20.752 c -0.1302,-0.2605 -0.358,-0.3907 -0.6836,-0.3907 -0.32547,0 -0.55334,0.1302 -0.68354,0.3907 l -2.2461,4.4433 C 6.90104,25.8464 6.6569,26.5218 6.49414,27.2217 6.33138,27.9215 6.25,28.6296 6.25,29.3457 c 0,0.4883 0.08952,0.9359 0.26855,1.3428 0.17904,0.4069 0.43132,0.7731 0.75684,1.0986 z m 1.36719,-5.9082 1.51362,-3.0273 1.5137,3.0273 c 0.2604,0.5534 0.4639,1.1231 0.6104,1.709 0.1465,0.5859 0.2197,1.1719 0.2197,1.7578 0,0.2604 -0.0488,0.5046 -0.1465,0.7324 -0.0976,0.2279 -0.2278,0.4395 -0.3906,0.6348 -0.1953,0.1628 -0.4069,0.293 -0.6348,0.3906 -0.2278,0.0977 -0.472,0.1465 -0.7324,0.1465 H 9.7168 C 9.45638,31.25 9.21224,31.2012 8.98438,31.1035 8.75651,31.0059 8.54492,30.8757 8.34961,30.7129 8.18685,30.5176 8.05664,30.306 7.95898,30.0781 7.86133,29.8503 7.8125,29.6061 7.8125,29.3457 c 0,-0.5859 0.07324,-1.1719 0.21973,-1.7578 0.14648,-0.5859 0.34993,-1.1556 0.61035,-1.709 z M 34.375,32.8125 h 1.5625 V 40.625 H 34.375 Z m 0,9.375 h 1.5625 V 43.75 H 34.375 Z M 46.0938,40.625 H 39.0625 V 21.0938 c 0,-0.2279 -0.0732,-0.4151 -0.2197,-0.5616 -0.1465,-0.1465 -0.3337,-0.2197 -0.5616,-0.2197 H 26.5625 V 8.59375 c 0,-0.09766 -0.0163,-0.19531 -0.0488,-0.29297 C 26.4811,8.20312 26.416,8.12175 26.3184,8.05664 L 23.4375,5.12695 v -4.3457 c 0,-0.227863 -0.0732,-0.415039 -0.2197,-0.561523 C 23.0713,0.0732422 22.8841,0 22.6562,0 H 3.90625 C 3.67839,0 3.49121,0.0732422 3.34473,0.219727 3.19824,0.366211 3.125,0.553387 3.125,0.78125 v 4.3457 L 0.244141,8.05664 C 0.146484,8.12175 0.0813802,8.20312 0.0488281,8.30078 0.016276,8.39844 0,8.49609 0,8.59375 V 44.5312 c 0,0.2279 0.0732422,0.4151 0.219727,0.5616 0.146484,0.1465 0.333658,0.2197 0.561523,0.2197 H 21.9727 c 0.1627,0.8789 0.6022,1.6195 1.3183,2.2217 0.7162,0.6022 1.5462,0.9033 2.4902,0.9033 h 15.625 c 0.6511,0 1.2045,-0.2279 1.6602,-0.6836 0.4557,-0.4557 0.6836,-1.0091 0.6836,-1.6601 0,-0.2279 0.0732,-0.4151 0.2197,-0.5616 0.1465,-0.1465 0.3337,-0.2197 0.5615,-0.2197 h 1.5626 c 0.651,0 1.2044,-0.2279 1.6601,-0.6836 0.4557,-0.4557 0.6836,-1.0091 0.6836,-1.6601 0,-0.6511 -0.2279,-1.2045 -0.6836,-1.6602 C 47.2982,40.8529 46.7448,40.625 46.0938,40.625 Z M 37.5,28.7109 C 37.207,28.5156 36.9059,28.3691 36.5967,28.2715 36.2874,28.1738 35.9538,28.125 35.5957,28.125 h -0.8789 c -0.4883,0 -0.9359,0.0895 -1.3428,0.2686 -0.4069,0.179 -0.7731,0.4313 -1.0986,0.7568 -0.1953,0.1628 -0.4069,0.293 -0.6348,0.3906 -0.2278,0.0977 -0.472,0.1465 -0.7324,0.1465 h -0.8789 c -0.2604,0 -0.5046,-0.0488 -0.7324,-0.1465 C 29.069,29.4434 28.8574,29.3132 28.6621,29.1504 28.3366,28.8249 27.9704,28.5726 27.5635,28.3936 27.1566,28.2145 26.709,28.125 26.2207,28.125 h -0.8789 c -0.3581,0 -0.6917,0.0488 -1.001,0.1465 -0.3092,0.0976 -0.6103,0.2441 -0.9033,0.4394 V 21.875 H 37.5 Z M 25,20.3125 h -2.3438 c -0.2278,0 -0.415,0.0732 -0.5615,0.2197 -0.1465,0.1465 -0.2197,0.3337 -0.2197,0.5616 V 43.75 H 20.3125 V 8.93555 L 22.6562,6.5918 25,8.93555 Z M 4.24805,6.25 H 20.752 L 19.1895,7.8125 H 2.68555 Z M 18.75,9.375 v 6.25 H 1.5625 v -6.25 z m 0,7.8125 v 18.75 H 1.5625 v -18.75 z M 4.6875,1.5625 H 21.875 v 3.125 H 4.6875 Z M 1.5625,43.75 V 37.5 H 18.75 v 6.25 z m 24.2187,3.125 c -0.651,0 -1.2044,-0.2279 -1.6601,-0.6836 -0.4557,-0.4557 -0.6836,-1.0091 -0.6836,-1.6602 V 30.8105 l 0.5371,-0.5859 c 0.1953,-0.1628 0.4069,-0.293 0.6348,-0.3906 0.2278,-0.0977 0.472,-0.1465 0.7324,-0.1465 h 0.8789 c 0.2604,0 0.5046,0.0488 0.7324,0.1465 0.2279,0.0976 0.4395,0.2278 0.6348,0.3906 0.3255,0.3255 0.6917,0.5778 1.0986,0.7568 0.4069,0.1791 0.8545,0.2686 1.3428,0.2686 h 0.8789 c 0.4883,0 0.9359,-0.0895 1.3428,-0.2686 0.4069,-0.179 0.7731,-0.4313 1.0986,-0.7568 0.1953,-0.1628 0.4069,-0.293 0.6348,-0.3906 0.2278,-0.0977 0.472,-0.1465 0.7324,-0.1465 h 0.8789 c 0.2604,0 0.5046,0.0488 0.7324,0.1465 0.2279,0.0976 0.4395,0.2278 0.6348,0.3906 L 37.5,30.8105 v 13.7207 c 0,0.6511 -0.2279,1.2045 -0.6836,1.6602 -0.4557,0.4557 -1.0091,0.6836 -1.6602,0.6836 z M 46.0938,43.75 h -1.5626 c -0.651,0 -1.2044,0.2279 -1.6601,0.6836 -0.4557,0.4557 -0.6836,1.0091 -0.6836,1.6602 0,0.2278 -0.0732,0.415 -0.2197,0.5615 -0.1465,0.1465 -0.3337,0.2197 -0.5616,0.2197 h -3.125 c 0.2279,-0.3255 0.4151,-0.6836 0.5616,-1.0742 0.1465,-0.3906 0.2197,-0.8138 0.2197,-1.2696 v -2.3437 h 7.0313 c 0.2278,0 0.415,0.0732 0.5615,0.2197 0.1465,0.1465 0.2197,0.3337 0.2197,0.5616 0,0.2278 -0.0732,0.415 -0.2197,0.5615 -0.1465,0.1465 -0.3337,0.2197 -0.5615,0.2197 z"
         fill="#ffffff"
         id="path1-24" /></g></g></svg>
