<?xml version="1.0" encoding="UTF-8" standalone="no"?>
<!-- Created with Inkscape (http://www.inkscape.org/) -->

<svg
   width="79.375mm"
   height="26.458334mm"
   viewBox="0 0 79.375 26.458334"
   version="1.1"
   id="svg1"
   xml:space="preserve"
   xmlns:inkscape="http://www.inkscape.org/namespaces/inkscape"
   xmlns:sodipodi="http://sodipodi.sourceforge.net/DTD/sodipodi-0.dtd"
   xmlns="http://www.w3.org/2000/svg"
   xmlns:svg="http://www.w3.org/2000/svg"><sodipodi:namedview
     id="namedview1"
     pagecolor="#ffffff"
     bordercolor="#000000"
     borderopacity="0.25"
     inkscape:showpageshadow="2"
     inkscape:pageopacity="0.0"
     inkscape:pagecheckerboard="0"
     inkscape:deskcolor="#d1d1d1"
     inkscape:document-units="mm"><inkscape:page
       x="0"
       y="0"
       width="79.375"
       height="26.458334"
       id="page2"
       margin="0"
       bleed="0" /></sodipodi:namedview><defs
     id="defs1" /><g
     inkscape:label="Шар 1"
     inkscape:groupmode="layer"
     id="layer1"><g
       style="fill:none"
       id="g1"
       transform="matrix(0.26458333,0,0,0.26458333,9.4579579,7.5519608)"><path
         d="m 14.4531,28.0273 c -0.5534,0 -1.0172,0.1872 -1.3916,0.5616 -0.3743,0.3743 -0.5615,0.8382 -0.5615,1.3916 0,0.5534 0.1872,1.0172 0.5615,1.3916 0.3744,0.3743 0.8382,0.5615 1.3916,0.5615 0.5534,0 1.0173,-0.1872 1.3916,-0.5615 0.3744,-0.3744 0.5615,-0.8382 0.5615,-1.3916 0,-0.5534 -0.1871,-1.0173 -0.5615,-1.3916 -0.3743,-0.3744 -0.8382,-0.5616 -1.3916,-0.5616 z m 0,-12.5 c -1.9857,0 -3.8574,0.3744 -5.61521,1.1231 -1.75781,0.7812 -3.28776,1.8229 -4.58984,3.125 -1.30209,1.3021 -2.34375,2.832 -3.125,4.5898 C 0.374349,26.123 0,27.9948 0,29.9805 c 0,1.9856 0.374349,3.8574 1.12305,5.6152 0.78125,1.7578 1.82291,3.2878 3.125,4.5898 1.30208,1.3021 2.83203,2.3438 4.58984,3.125 1.75781,0.7487 3.62951,1.1231 5.61521,1.1231 1.9857,0 3.8574,-0.3744 5.6153,-1.1231 1.7578,-0.7812 3.2877,-1.8229 4.5898,-3.125 1.3021,-1.302 2.3438,-2.832 3.125,-4.5898 0.7487,-1.7578 1.123,-3.6296 1.123,-5.6152 0,-1.9857 -0.3743,-3.8575 -1.123,-5.6153 -0.7812,-1.7578 -1.8229,-3.2877 -3.125,-4.5898 -1.3021,-1.3021 -2.832,-2.3438 -4.5898,-3.125 -1.7579,-0.7487 -3.6296,-1.1231 -5.6153,-1.1231 z m 0,19.336 c -1.3346,0 -2.4821,-0.4802 -3.4424,-1.4404 -0.9602,-0.9603 -1.44039,-2.1078 -1.44039,-3.4424 0,-1.3347 0.48019,-2.4821 1.44039,-3.4424 0.9603,-0.9603 2.1078,-1.4404 3.4424,-1.4404 1.3347,0 2.4821,0.4801 3.4424,1.4404 0.9603,0.9603 1.4404,2.1077 1.4404,3.4424 0,1.3346 -0.4801,2.4821 -1.4404,3.4424 -0.9603,0.9602 -2.1077,1.4404 -3.4424,1.4404 z M 32.5684,14.7949 28.9551,2.92969 h 2.2461 c 0.4231,0 0.7731,-0.14649 1.0498,-0.43946 0.2767,-0.29296 0.415,-0.63476 0.415,-1.02539 0,-0.39062 -0.1383,-0.732418 -0.415,-1.025387 C 31.9743,0.146484 31.6243,0 31.2012,0 h -11.084 v 13.5254 c 0.4883,0.1953 0.9603,0.3906 1.416,0.5859 0.4557,0.1953 0.9115,0.4232 1.3672,0.6836 z M 17.1875,12.793 V 0 H 9.27734 C 8.98438,0 8.71582,0.0895195 8.47168,0.268555 8.22754,0.44759 8.04036,0.667316 7.91016,0.927734 7.8776,0.99284 7.85319,1.07422 7.83691,1.17188 7.82064,1.26953 7.8125,1.35091 7.8125,1.41602 c 0,0.03255 0,0.04882 0,0.04882 V 13.916 c 1.04167,-0.4232 2.11589,-0.7487 3.2227,-0.9765 1.1067,-0.2279 2.246,-0.3418 3.4179,-0.3418 0.4558,0 0.9115,0.0162 1.3672,0.0488 0.4557,0.0325 0.9115,0.0814 1.3672,0.1465 z M 50,38.1836 c 0,1.7253 -0.6104,3.1982 -1.8311,4.4189 -1.2207,1.2207 -2.6936,1.8311 -4.4189,1.8311 -1.7253,0 -3.1901,-0.6104 -4.3945,-1.8311 -1.2045,-1.2207 -1.8067,-2.6936 -1.8067,-4.4189 0,-1.7253 0.6022,-3.1901 1.8067,-4.3945 1.2044,-1.2045 2.6692,-1.8067 4.3945,-1.8067 1.7253,0 3.1982,0.6022 4.4189,1.8067 C 49.3896,34.9935 50,36.4583 50,38.1836 Z M 44.043,22.6562 h 3.125 C 46.8099,21.582 46.224,20.638 45.4102,19.8242 44.5964,19.0104 43.6523,18.4245 42.5781,18.0664 v 3.125 c 0,0.3906 0.1465,0.7324 0.4395,1.0254 0.2929,0.293 0.6347,0.4394 1.0254,0.4394 z m 3.5156,7.2266 V 25.5859 H 44.043 c -1.2045,0 -2.238,-0.4313 -3.1006,-1.2939 -0.8626,-0.8626 -1.294,-1.8962 -1.294,-3.1006 v -3.418 c 0,-0.0325 0,-0.0569 0,-0.0732 0,-0.0163 0,-0.0244 0,-0.0244 H 26.709 c 1.595,1.5625 2.8483,3.4017 3.7598,5.5176 0.9114,2.1158 1.3671,4.3782 1.3671,6.7871 0,0.944 -0.0732,1.8799 -0.2197,2.8076 -0.1465,0.9277 -0.3662,1.8148 -0.6592,2.6611 h 4.0528 c 0.5859,-1.8554 1.6764,-3.3854 3.2714,-4.5898 1.5951,-1.2045 3.418,-1.8067 5.4688,-1.8067 0.6836,0 1.3428,0.0651 1.9775,0.1953 0.6348,0.1303 1.2452,0.3418 1.8311,0.6348 z M 39.8438,12.8906 c 0,-0.0651 0.0244,-0.1302 0.0732,-0.1953 0.0488,-0.0651 0.1221,-0.0976 0.2197,-0.0976 h 0.6836 c 0.3906,0 0.7324,-0.1465 1.0254,-0.4395 0.293,-0.293 0.4395,-0.6348 0.4395,-1.0254 0,-0.3906 -0.1465,-0.7324 -0.4395,-1.0254 -0.293,-0.29295 -0.6348,-0.43943 -1.0254,-0.43943 h -0.6836 c -0.8789,0 -1.6357,0.31738 -2.2705,0.95213 -0.6348,0.6348 -0.9521,1.3916 -0.9521,2.2705 v 1.9043 h 2.9297 z"
         fill="#ffffff"
         id="path1" /></g><g
       style="fill:none"
       id="g2"
       transform="matrix(0.26458333,0,0,0.26458333,34.462198,6.8155725)"><path
         d="m 15.0879,8.69141 2.0508,-2.05079 6.1035,6.05468 c 0.1627,0.1953 0.3336,0.3906 0.5127,0.5859 0.179,0.1954 0.3499,0.3907 0.5127,0.586 0.9765,-1.4323 1.3834,-3.0274 1.2207,-4.78517 C 25.3255,7.32422 24.6257,5.82682 23.3887,4.58984 21.9238,3.09245 20.2393,1.95312 18.335,1.17188 16.4307,0.390625 14.4368,0 12.3535,0 H 8.44727 v 3.90625 c 0,2.08333 0.39062,4.07715 1.17187,5.98145 0.78126,1.9043 1.92056,3.5889 3.41796,5.0537 1.237,1.237 2.7181,1.9369 4.4434,2.0996 1.7252,0.1628 3.304,-0.2116 4.7363,-1.123 -0.1628,-0.1953 -0.3337,-0.3907 -0.5127,-0.586 -0.179,-0.1953 -0.3662,-0.3906 -0.5615,-0.5859 z M 38.916,6.64062 40.9668,8.69141 34.9121,14.7461 c -0.1953,0.1953 -0.3825,0.3906 -0.5615,0.5859 -0.179,0.1953 -0.3499,0.3907 -0.5127,0.586 1.4323,0.9114 3.0111,1.2858 4.7363,1.123 1.7253,-0.1627 3.2064,-0.8626 4.4434,-2.0996 1.4974,-1.4648 2.6367,-3.1494 3.4179,-5.0537 0.7813,-1.9043 1.1719,-3.89812 1.1719,-5.98145 V 0 h -3.9062 c -2.0834,0 -4.0772,0.390625 -5.9815,1.17188 -1.9043,0.78124 -3.5888,1.92057 -5.0537,3.41796 -1.237,1.23698 -1.9368,2.73438 -2.0996,4.49219 -0.1628,1.75777 0.2441,3.35287 1.2207,4.78517 0.1628,-0.1953 0.3337,-0.3906 0.5127,-0.586 0.179,-0.1953 0.3499,-0.3906 0.5127,-0.5859 z m -6.25,8.30078 c -0.1627,-0.1628 -0.3174,-0.3337 -0.4639,-0.5127 -0.1464,-0.179 -0.2848,-0.3662 -0.415,-0.5615 -0.8138,0.9114 -1.5299,1.888 -2.1484,2.9297 -0.6185,1.0416 -1.1556,2.1321 -1.6114,3.2715 -0.4231,-1.1394 -0.9521,-2.2299 -1.5869,-3.2715 -0.6347,-1.0417 -1.359,-2.0183 -2.1728,-2.9297 -0.1302,0.1953 -0.2686,0.3825 -0.4151,0.5615 -0.1464,0.179 -0.3011,0.3499 -0.4638,0.5127 -0.1953,0.1953 -0.3907,0.3662 -0.586,0.5127 -0.1953,0.1465 -0.3906,0.3011 -0.5859,0.4639 1.237,1.4974 2.2135,3.1819 2.9297,5.0537 0.7161,1.8717 1.1556,3.7842 1.3183,5.7373 -1.1718,0.1302 -2.2949,0.415 -3.3691,0.8545 -1.0742,0.4394 -2.0671,1.001 -2.9785,1.6845 0.4232,0.2279 0.8382,0.4802 1.2451,0.7569 0.4069,0.2767 0.8382,0.5615 1.2939,0.8545 l 5.3711,0.0976 c 1.9857,0 3.8249,0.5453 5.5176,1.6358 1.6927,1.0905 2.9623,2.5472 3.8086,4.3701 v 0.0488 c 0.5208,-0.2929 1.0254,-0.6103 1.5137,-0.9521 0.4883,-0.3418 0.9603,-0.6918 1.416,-1.0498 -0.8464,-2.2461 -2.2217,-4.1179 -4.126,-5.6153 -1.9043,-1.4974 -4.0934,-2.3925 -6.5674,-2.6855 0.1628,-1.9531 0.6023,-3.8656 1.3184,-5.7373 0.7161,-1.8718 1.6927,-3.5563 2.9297,-5.0537 -0.1953,-0.1628 -0.3906,-0.3174 -0.5859,-0.4639 -0.1954,-0.1465 -0.3907,-0.3174 -0.586,-0.5127 z M 17.2852,48.7793 c 1.3346,0.3255 2.6855,0.6103 4.0527,0.8545 1.3672,0.2441 2.9785,0.3662 4.834,0.3662 2.4739,0 4.6549,-0.2604 6.5429,-0.7812 1.8555,-0.5534 3.654,-1.3103 5.3956,-2.2706 1.7415,-0.9602 3.54,-2.1077 5.3955,-3.4423 1.8554,-1.3672 4.0201,-2.8483 6.4941,-4.4434 -0.0651,-0.0651 -0.0977,-0.1058 -0.0977,-0.1221 0,-0.0162 -0.2441,-0.3987 -0.7324,-1.1474 -0.7487,-1.1068 -1.8066,-1.709 -3.1738,-1.8067 -1.3672,-0.0976 -2.5716,0.2767 -3.6133,1.1231 -1.0742,0.8463 -2.2135,1.6276 -3.418,2.3437 -1.2044,0.6836 -2.4495,1.2696 -3.7353,1.7578 -1.2858,0.4883 -2.6123,0.8627 -3.9795,1.1231 -1.3346,0.2604 -2.7018,0.3743 -4.1016,0.3418 -2.2786,0 -4.191,-0.2442 -5.7373,-0.7324 -1.5462,-0.4883 -2.417,-0.765 -2.6123,-0.8301 l 0.8789,-2.7344 c 0.2605,0.0651 1.0336,0.3011 2.3194,0.708 1.2858,0.4069 2.9378,0.6266 4.956,0.6592 1.3347,0.0651 2.653,-0.0488 3.9551,-0.3418 1.3021,-0.293 2.5553,-0.6999 3.7598,-1.2207 -0.586,-1.2695 -1.473,-2.3031 -2.6612,-3.1006 -1.1881,-0.7975 -2.5146,-1.1963 -3.9795,-1.1963 h -5.1757 c -0.3256,0 -0.6511,-0.0488 -0.9766,-0.1465 -0.3255,-0.0976 -0.6185,-0.2441 -0.8789,-0.4394 -3.1901,-2.1485 -5.5664,-3.3203 -7.1289,-3.5156 -1.5625,-0.1954 -3.8249,0.6836 -6.78712,2.6367 H 0 v 14.6484 h 1.46484 c 4.10157,0 7.32422,0.1872 9.66796,0.5615 2.3438,0.3744 4.3945,0.7569 6.1524,1.1475 z"
         fill="#ffffff"
         id="path1-1" /></g><g
       style="fill:none"
       id="g3"
       transform="matrix(0.26458333,0,0,0.26458333,59.466438,6.8155725)"><path
         d="m 21.2891,18.7988 h 7.1777 V 12.4512 L 24.8535,6.68945 21.2891,12.4512 Z M 18.3594,13.5254 H 0 V 50 H 14.1113 V 31.2012 l 4.2481,-6.836 z M 23.3887,3.51562 V 0 H 5.0293 v 4.3457 l -3.85742,6.25 H 18.9941 Z M 34.8145,27.5879 32.0312,32.0312 V 50 h 5.5665 V 32.0312 Z M 17.041,33.0566 H 29.1016 V 50 H 17.041 Z M 33.3496,21.7285 H 21.2891 v 3.4668 l -3.0762,4.9317 h 11.5723 l 3.5644,-5.7618 z"
         fill="#ffffff"
         id="path1-5" /></g></g></svg>
